<svg width="841" height="110" viewBox="0 0 841 110" fill="none" xmlns="http://www.w3.org/2000/svg">
<path d="M102.35 108V109H103.35V108H102.35ZM69.05 108L68.2154 108.551L68.5119 109H69.05V108ZM33.8 54.6L34.6346 54.0491L32.8 51.2699V54.6H33.8ZM33.8 108V109H34.8V108H33.8ZM0.5 108H-0.5V109H0.5V108ZM0.5 1.8V0.799999H-0.5V1.8H0.5ZM33.8 1.8L34.6388 1.2555L34.3431 0.799999H33.8V1.8ZM69.05 56.1L68.2112 56.6445L70.05 59.477V56.1H69.05ZM69.05 1.8V0.799999H68.05V1.8H69.05ZM102.35 1.8H103.35V0.799999H102.35V1.8ZM102.35 107H69.05V109H102.35V107ZM69.8846 107.449L34.6346 54.0491L32.9654 55.1509L68.2154 108.551L69.8846 107.449ZM32.8 54.6V108H34.8V54.6H32.8ZM33.8 107H0.5V109H33.8V107ZM1.5 108V1.8H-0.5V108H1.5ZM0.5 2.8H33.8V0.799999H0.5V2.8ZM32.9612 2.3445L68.2112 56.6445L69.8888 55.5555L34.6388 1.2555L32.9612 2.3445ZM70.05 56.1V1.8H68.05V56.1H70.05ZM69.05 2.8H102.35V0.799999H69.05V2.8ZM101.35 1.8V108H103.35V1.8H101.35ZM141.545 102L141.052 102.87L141.056 102.873L141.545 102ZM121.745 82.5L120.883 83.0084L120.883 83.0084L121.745 82.5ZM141.545 7.04999L142.029 7.92466L142.033 7.92268L141.545 7.04999ZM196.595 7.04999L196.102 7.9202L196.11 7.92465L196.595 7.04999ZM216.245 26.4L215.379 26.9006L215.383 26.9084L216.245 26.4ZM216.245 82.5L215.383 81.9916L215.379 81.9994L216.245 82.5ZM196.445 102L195.956 101.127L195.952 101.13L196.445 102ZM184.445 71.7L185.204 72.3508L185.211 72.3419L184.445 71.7ZM184.445 37.2L183.678 37.842L183.685 37.8508L184.445 37.2ZM153.695 37.2L154.454 37.8508L154.461 37.8419L153.695 37.2ZM153.695 71.7L152.928 72.342L152.935 72.3508L153.695 71.7ZM169.145 108.05C159.309 108.05 150.278 105.741 142.033 101.127L141.056 102.873C149.611 107.659 158.98 110.05 169.145 110.05V108.05ZM142.037 101.13C133.891 96.517 127.418 90.1425 122.606 81.9916L120.883 83.0084C125.871 91.4575 132.598 98.083 141.052 102.87L142.037 101.13ZM122.606 81.9916C117.804 73.8577 115.395 64.6858 115.395 54.45H113.395C113.395 65.0142 115.885 74.5423 120.883 83.0084L122.606 81.9916ZM115.395 54.45C115.395 44.2142 117.804 35.0423 122.606 26.9084L120.883 25.8916C115.885 34.3577 113.395 43.8858 113.395 54.45H115.395ZM122.606 26.9084C127.417 18.7593 133.888 12.4369 142.029 7.92465L141.06 6.17534C132.601 10.8631 125.872 17.4407 120.883 25.8916L122.606 26.9084ZM142.033 7.92268C150.278 3.30948 159.309 0.999996 169.145 0.999996V-1C158.98 -1 149.611 1.39051 141.056 6.17731L142.033 7.92268ZM169.145 0.999996C178.981 0.999996 187.959 3.30945 196.102 7.92017L197.087 6.17982C188.63 1.39054 179.309 -1 169.145 -1V0.999996ZM196.11 7.92465C204.25 12.4358 210.669 18.7558 215.379 26.9006L217.11 25.8994C212.22 17.4442 205.54 10.8642 197.079 6.17534L196.11 7.92465ZM215.383 26.9084C220.185 35.0423 222.595 44.2142 222.595 54.45H224.595C224.595 43.8858 222.104 34.3577 217.106 25.8916L215.383 26.9084ZM222.595 54.45C222.595 64.6858 220.185 73.8577 215.383 81.9916L217.106 83.0084C222.104 74.5423 224.595 65.0142 224.595 54.45H222.595ZM215.379 81.9994C210.669 90.143 204.2 96.5148 195.956 101.127L196.933 102.873C205.489 98.0852 212.22 91.457 217.11 83.0006L215.379 81.9994ZM195.952 101.13C187.808 105.741 178.879 108.05 169.145 108.05V110.05C179.21 110.05 188.481 107.659 196.937 102.87L195.952 101.13ZM169.145 79C175.974 79 181.377 76.8155 185.204 72.3508L183.685 71.0492C180.312 74.9845 175.515 77 169.145 77V79ZM185.211 72.3419C189.001 67.8159 190.845 61.8167 190.845 54.45H188.845C188.845 61.4833 187.089 66.9841 183.678 71.0581L185.211 72.3419ZM190.845 54.45C190.845 46.9886 189.003 40.9816 185.204 36.5492L183.685 37.8508C187.086 41.8184 188.845 47.3113 188.845 54.45H190.845ZM185.211 36.5581C181.387 31.9901 175.982 29.75 169.145 29.75V31.75C175.507 31.75 180.302 33.8099 183.678 37.8419L185.211 36.5581ZM169.145 29.75C162.212 29.75 156.755 31.9865 152.928 36.5581L154.461 37.8419C157.834 33.8135 162.677 31.75 169.145 31.75V29.75ZM152.935 36.5492C149.136 40.9816 147.295 46.9886 147.295 54.45H149.295C149.295 47.3113 151.053 41.8184 154.454 37.8508L152.935 36.5492ZM147.295 54.45C147.295 61.8167 149.139 67.8159 152.928 72.3419L154.461 71.0581C151.051 66.9841 149.295 61.4833 149.295 54.45H147.295ZM152.935 72.3508C156.765 76.819 162.22 79 169.145 79V77C162.669 77 157.824 74.981 154.454 71.0492L152.935 72.3508ZM245.657 100.2L245.067 101.007L245.078 101.015L245.657 100.2ZM232.307 73.95V72.95H231.245L231.309 74.0108L232.307 73.95ZM267.707 73.95L268.704 73.8683L268.629 72.95H267.707V73.95ZM280.307 81.9L280.862 82.732L280.869 82.7272L280.877 82.7222L280.307 81.9ZM278.207 71.85L277.698 72.7103L277.71 72.7174L277.722 72.7242L278.207 71.85ZM265.607 66.45L265.275 67.393L265.276 67.3936L265.607 66.45ZM248.657 59.4L248.194 60.2863L248.202 60.2904L248.657 59.4ZM237.257 49.35L238.066 48.7618L238.066 48.7618L237.257 49.35ZM232.607 32.4L233.607 32.4145L233.607 32.4072V32.4H232.607ZM237.857 14.85L237.052 14.2579L237.049 14.2608L237.857 14.85ZM252.407 3.74999L252.033 2.82254L252.028 2.82469L252.407 3.74999ZM304.157 9L303.538 9.78489L303.543 9.7888L304.157 9ZM316.307 34.35V35.35H317.345L317.307 34.3133L316.307 34.35ZM280.457 34.35L279.458 34.3833L279.49 35.35H280.457V34.35ZM269.657 27.45L270.365 28.1571L270.383 28.1385L270.401 28.119L269.657 27.45ZM272.207 37.35L271.683 38.2017L271.702 38.2133L271.722 38.2242L272.207 37.35ZM284.957 42.9L284.603 43.835L284.608 43.8369L284.957 42.9ZM301.457 50.1L300.986 50.9818L300.994 50.9862L301.457 50.1ZM312.857 59.7L312.069 60.3153L312.069 60.3153L312.857 59.7ZM312.857 92.7L313.705 93.2315L313.709 93.2241L312.857 92.7ZM298.907 104.7L298.478 103.797L298.907 104.7ZM277.157 108.05C264.613 108.05 254.33 105.138 246.237 99.3849L245.078 101.015C253.585 107.062 264.302 110.05 277.157 110.05V108.05ZM246.248 99.393C238.322 93.5935 233.99 85.1369 233.306 73.8892L231.309 74.0108C232.025 85.7631 236.593 94.8065 245.067 101.007L246.248 99.393ZM232.307 74.95H267.707V72.95H232.307V74.95ZM266.711 74.0317C266.97 77.1943 267.809 79.7253 269.359 81.4753C270.937 83.258 273.134 84.1 275.807 84.1V82.1C273.58 82.1 271.978 81.417 270.856 80.1497C269.705 78.8497 268.945 76.8057 268.704 73.8683L266.711 74.0317ZM275.807 84.1C277.756 84.1 279.461 83.6659 280.862 82.732L279.753 81.0679C278.754 81.7341 277.459 82.1 275.807 82.1V84.1ZM280.877 82.7222C282.487 81.6073 283.257 79.9255 283.257 77.85H281.257C281.257 79.3745 280.728 80.3927 279.738 81.0778L280.877 82.7222ZM283.257 77.85C283.257 74.8962 281.622 72.6033 278.693 70.9758L277.722 72.7242C280.192 74.0967 281.257 75.8038 281.257 77.85H283.257ZM278.717 70.9897C275.93 69.3381 271.655 67.5121 265.939 65.5064L265.276 67.3936C270.96 69.3879 275.085 71.1619 277.698 72.7103L278.717 70.9897ZM265.94 65.507C259.166 63.1161 253.56 60.7828 249.113 58.5096L248.202 60.2904C252.755 62.6172 258.449 64.9839 265.275 67.393L265.94 65.507ZM249.121 58.5138C244.87 56.2918 241.184 53.0493 238.066 48.7618L236.449 49.9382C239.731 54.4507 243.645 57.9082 248.194 60.2862L249.121 58.5138ZM238.066 48.7618C235.024 44.5789 233.51 39.1568 233.607 32.4145L231.608 32.3855C231.505 39.4431 233.091 45.3211 236.449 49.9382L238.066 48.7618ZM233.607 32.4C233.607 25.6764 235.31 20.0415 238.665 15.4392L237.049 14.2608C233.405 19.2585 231.607 25.3236 231.607 32.4H233.607ZM238.663 15.4421C242.145 10.7027 246.842 7.11165 252.787 4.6753L252.028 2.82469C245.773 5.38834 240.77 9.1973 237.052 14.2579L238.663 15.4421ZM252.781 4.67743C258.846 2.23207 265.666 0.999996 273.257 0.999996V-1C265.449 -1 258.369 0.26792 252.033 2.82255L252.781 4.67743ZM273.257 0.999996C286.109 0.999996 296.166 3.96531 303.538 9.78488L304.777 8.21511C296.949 2.03468 286.405 -1 273.257 -1V0.999996ZM303.543 9.7888C310.981 15.5845 314.918 23.7429 315.308 34.3867L317.307 34.3133C316.897 23.1571 312.734 14.4155 304.772 8.2112L303.543 9.7888ZM316.307 33.35H280.457V35.35H316.307V33.35ZM281.457 34.3167C281.353 31.198 280.57 28.729 278.888 27.1672L277.527 28.6328C278.645 29.671 279.362 31.502 279.458 34.3833L281.457 34.3167ZM278.888 27.1672C277.294 25.6868 275.347 24.95 273.107 24.95V26.95C274.868 26.95 276.321 27.5132 277.527 28.6328L278.888 27.1672ZM273.107 24.95C271.437 24.95 270.012 25.5608 268.914 26.781L270.401 28.119C271.103 27.3392 271.978 26.95 273.107 26.95V24.95ZM268.95 26.7429C267.806 27.8867 267.307 29.4767 267.307 31.35H269.307C269.307 29.8233 269.708 28.8133 270.365 28.1571L268.95 26.7429ZM267.307 31.35C267.307 34.1931 268.88 36.4763 271.683 38.2017L272.732 36.4983C270.335 35.0237 269.307 33.3069 269.307 31.35H267.307ZM271.722 38.2242C274.488 39.7607 278.793 41.6313 284.603 43.835L285.312 41.965C279.522 39.7687 275.327 37.9393 272.693 36.4758L271.722 38.2242ZM284.608 43.8369C291.283 46.3278 296.739 48.7101 300.986 50.9818L301.929 49.2182C297.576 46.8899 292.031 44.4722 285.307 41.9631L284.608 43.8369ZM300.994 50.9862C305.262 53.217 308.953 56.3223 312.069 60.3153L313.646 59.0847C310.362 54.8777 306.453 51.583 301.921 49.2138L300.994 50.9862ZM312.069 60.3153C315.107 64.2075 316.657 69.1286 316.657 75.15H318.657C318.657 68.7714 317.008 63.3925 313.646 59.0847L312.069 60.3153ZM316.657 75.15C316.657 81.4774 315.102 87.1438 312.006 92.1759L313.709 93.2241C317.012 87.8562 318.657 81.8226 318.657 75.15H316.657ZM312.01 92.1685C308.923 97.0883 304.428 100.968 298.478 103.797L299.337 105.603C305.587 102.632 310.391 98.5117 313.704 93.2315L312.01 92.1685ZM298.478 103.797C292.541 106.619 285.444 108.05 277.157 108.05V110.05C285.671 110.05 293.074 108.581 299.337 105.603L298.478 103.797ZM353.507 102L353.015 102.87L353.019 102.873L353.507 102ZM333.707 82.5L332.846 83.0084L332.846 83.0084L333.707 82.5ZM353.507 7.04999L353.992 7.92466L353.996 7.92268L353.507 7.04999ZM408.557 7.04999L408.065 7.9202L408.073 7.92465L408.557 7.04999ZM428.207 26.4L427.342 26.9006L427.346 26.9084L428.207 26.4ZM428.207 82.5L427.346 81.9916L427.342 81.9994L428.207 82.5ZM408.407 102L407.919 101.127L407.915 101.13L408.407 102ZM396.407 71.7L397.167 72.3508L397.174 72.3419L396.407 71.7ZM396.407 37.2L395.641 37.842L395.648 37.8508L396.407 37.2ZM365.657 37.2L366.417 37.8508L366.424 37.8419L365.657 37.2ZM365.657 71.7L364.891 72.342L364.898 72.3508L365.657 71.7ZM381.107 108.05C371.271 108.05 362.241 105.741 353.996 101.127L353.019 102.873C361.574 107.659 370.943 110.05 381.107 110.05V108.05ZM354 101.13C345.854 96.517 339.381 90.1425 334.569 81.9916L332.846 83.0084C337.834 91.4575 344.561 98.083 353.015 102.87L354 101.13ZM334.569 81.9916C329.767 73.8577 327.357 64.6858 327.357 54.45H325.357C325.357 65.0142 327.848 74.5423 332.846 83.0084L334.569 81.9916ZM327.357 54.45C327.357 44.2142 329.767 35.0423 334.569 26.9084L332.846 25.8916C327.848 34.3577 325.357 43.8858 325.357 54.45H327.357ZM334.569 26.9084C339.379 18.7593 345.851 12.4369 353.992 7.92465L353.023 6.17534C344.564 10.8631 337.835 17.4407 332.846 25.8916L334.569 26.9084ZM353.996 7.92268C362.241 3.30948 371.271 0.999996 381.107 0.999996V-1C370.943 -1 361.574 1.39051 353.019 6.17731L353.996 7.92268ZM381.107 0.999996C390.943 0.999996 399.922 3.30945 408.065 7.92017L409.05 6.17982C400.593 1.39054 391.271 -1 381.107 -1V0.999996ZM408.073 7.92465C416.212 12.4358 422.632 18.7558 427.342 26.9006L429.073 25.8994C424.183 17.4442 417.502 10.8642 409.042 6.17534L408.073 7.92465ZM427.346 26.9084C432.148 35.0423 434.557 44.2142 434.557 54.45H436.557C436.557 43.8858 434.067 34.3577 429.069 25.8916L427.346 26.9084ZM434.557 54.45C434.557 64.6858 432.148 73.8577 427.346 81.9916L429.069 83.0084C434.067 74.5423 436.557 65.0142 436.557 54.45H434.557ZM427.342 81.9994C422.632 90.143 416.163 96.5148 407.919 101.127L408.896 102.873C417.452 98.0852 424.183 91.457 429.073 83.0006L427.342 81.9994ZM407.915 101.13C399.771 105.741 390.842 108.05 381.107 108.05V110.05C391.173 110.05 400.444 107.659 408.9 102.87L407.915 101.13ZM381.107 79C387.937 79 393.34 76.8155 397.167 72.3508L395.648 71.0492C392.275 74.9845 387.478 77 381.107 77V79ZM397.174 72.3419C400.963 67.8159 402.807 61.8167 402.807 54.45H400.807C400.807 61.4833 399.051 66.9841 395.641 71.0581L397.174 72.3419ZM402.807 54.45C402.807 46.9886 400.966 40.9816 397.167 36.5492L395.648 37.8508C399.049 41.8184 400.807 47.3113 400.807 54.45H402.807ZM397.174 36.5581C393.35 31.9901 387.945 29.75 381.107 29.75V31.75C387.47 31.75 392.265 33.8099 395.641 37.8419L397.174 36.5581ZM381.107 29.75C374.175 29.75 368.718 31.9865 364.891 36.5581L366.424 37.8419C369.797 33.8135 374.64 31.75 381.107 31.75V29.75ZM364.898 36.5492C361.099 40.9816 359.257 46.9886 359.257 54.45H361.257C361.257 47.3113 363.016 41.8184 366.417 37.8508L364.898 36.5492ZM359.257 54.45C359.257 61.8167 361.101 67.8159 364.891 72.3419L366.424 71.0581C363.013 66.9841 361.257 61.4833 361.257 54.45H359.257ZM364.898 72.3508C368.728 76.819 374.183 79 381.107 79V77C374.632 77 369.787 74.981 366.417 71.0492L364.898 72.3508ZM530.97 1.8H531.97V0.799999H530.97V1.8ZM530.97 28.2V29.2H531.97V28.2H530.97ZM502.77 28.2V27.2H501.77V28.2H502.77ZM502.77 108V109H503.77V108H502.77ZM469.47 108H468.47V109H469.47V108ZM469.47 28.2H470.47V27.2H469.47V28.2ZM441.57 28.2H440.57V29.2H441.57V28.2ZM441.57 1.8V0.799999H440.57V1.8H441.57ZM529.97 1.8V28.2H531.97V1.8H529.97ZM530.97 27.2H502.77V29.2H530.97V27.2ZM501.77 28.2V108H503.77V28.2H501.77ZM502.77 107H469.47V109H502.77V107ZM470.47 108V28.2H468.47V108H470.47ZM469.47 27.2H441.57V29.2H469.47V27.2ZM442.57 28.2V1.8H440.57V28.2H442.57ZM441.57 2.8H530.97V0.799999H441.57V2.8ZM593.402 108L592.516 108.464L592.797 109H593.402V108ZM573.452 69.9L574.338 69.4361L574.057 68.9H573.452V69.9ZM573.302 69.9V68.9H572.302V69.9H573.302ZM573.302 108V109H574.302V108H573.302ZM540.002 108H539.002V109H540.002V108ZM540.002 1.8V0.799999H539.002V1.8H540.002ZM611.552 6.44999L611.099 7.34156L611.111 7.34734L611.552 6.44999ZM625.202 18.9L624.332 19.3926L624.337 19.4024L624.343 19.4121L625.202 18.9ZM623.852 55.5L623.043 54.9118L623.036 54.9216L623.852 55.5ZM606.902 67.35L606.593 66.3988L605.426 66.7773L606.033 67.8441L606.902 67.35ZM630.002 108V109H631.72L630.871 107.506L630.002 108ZM573.302 47.7H572.302V48.7H573.302V47.7ZM593.702 45.6L594.36 46.3526L594.373 46.3413L594.386 46.3295L593.702 45.6ZM593.552 32.1L592.845 32.8071L592.856 32.8178L592.867 32.8282L593.552 32.1ZM573.302 29.7V28.7H572.302V29.7H573.302ZM594.288 107.536L574.338 69.4361L572.566 70.3639L592.516 108.464L594.288 107.536ZM573.452 68.9H573.302V70.9H573.452V68.9ZM572.302 69.9V108H574.302V69.9H572.302ZM573.302 107H540.002V109H573.302V107ZM541.002 108V1.8H539.002V108H541.002ZM540.002 2.8H589.502V0.799999H540.002V2.8ZM589.502 2.8C597.984 2.8 605.171 4.32878 611.099 7.34148L612.005 5.55851C605.733 2.37121 598.22 0.799999 589.502 0.799999V2.8ZM611.111 7.34734C617.052 10.2693 621.442 14.2876 624.332 19.3926L626.072 18.4074C622.962 12.9124 618.252 8.63066 611.993 5.55264L611.111 7.34734ZM624.343 19.4121C627.342 24.4434 628.852 30.1635 628.852 36.6H630.852C630.852 29.8365 629.261 23.7566 626.061 18.3879L624.343 19.4121ZM628.852 36.6C628.852 43.4986 626.913 49.5906 623.043 54.9118L624.661 56.0882C628.791 50.4094 630.852 43.9014 630.852 36.6H628.852ZM623.036 54.9216C619.279 60.2198 613.821 64.0546 606.593 66.3988L607.21 68.3012C614.783 65.8454 620.625 61.7802 624.668 56.0784L623.036 54.9216ZM606.033 67.8441L629.133 108.494L630.871 107.506L607.771 66.8559L606.033 67.8441ZM630.002 107H593.402V109H630.002V107ZM573.302 48.7H586.502V46.7H573.302V48.7ZM586.502 48.7C589.826 48.7 592.505 47.9758 594.36 46.3526L593.043 44.8474C591.699 46.0242 589.578 46.7 586.502 46.7V48.7ZM594.386 46.3295C596.259 44.5732 597.102 41.9597 597.102 38.7H595.102C595.102 41.6403 594.345 43.6268 593.018 44.8705L594.386 46.3295ZM597.102 38.7C597.102 35.6837 596.178 33.198 594.237 31.3718L592.867 32.8282C594.326 34.202 595.102 36.1163 595.102 38.7H597.102ZM594.259 31.3929C592.411 29.5446 589.767 28.7 586.502 28.7V30.7C589.437 30.7 591.493 31.4554 592.845 32.8071L594.259 31.3929ZM586.502 28.7H573.302V30.7H586.502V28.7ZM572.302 29.7V47.7H574.302V29.7H572.302ZM664.64 102L664.147 102.87L664.152 102.873L664.64 102ZM644.84 82.5L643.979 83.0084L643.979 83.0084L644.84 82.5ZM664.64 7.04999L665.125 7.92466L665.129 7.92268L664.64 7.04999ZM719.69 7.04999L719.197 7.9202L719.205 7.92465L719.69 7.04999ZM739.34 26.4L738.475 26.9006L738.479 26.9084L739.34 26.4ZM739.34 82.5L738.479 81.9916L738.475 81.9994L739.34 82.5ZM719.54 102L719.052 101.127L719.047 101.13L719.54 102ZM707.54 71.7L708.3 72.3508L708.307 72.3419L707.54 71.7ZM707.54 37.2L706.773 37.842L706.781 37.8508L707.54 37.2ZM676.79 37.2L677.55 37.8508L677.557 37.8419L676.79 37.2ZM676.79 71.7L676.023 72.342L676.031 72.3508L676.79 71.7ZM692.24 108.05C682.404 108.05 673.373 105.741 665.129 101.127L664.152 102.873C672.707 107.659 682.076 110.05 692.24 110.05V108.05ZM665.133 101.13C656.987 96.517 650.513 90.1425 645.701 81.9916L643.979 83.0084C648.967 91.4575 655.693 98.083 664.147 102.87L665.133 101.13ZM645.701 81.9916C640.899 73.8577 638.49 64.6858 638.49 54.45H636.49C636.49 65.0142 638.981 74.5423 643.979 83.0084L645.701 81.9916ZM638.49 54.45C638.49 44.2142 640.899 35.0423 645.701 26.9084L643.979 25.8916C638.981 34.3577 636.49 43.8858 636.49 54.45H638.49ZM645.701 26.9084C650.512 18.7593 656.983 12.4369 665.125 7.92465L664.155 6.17534C655.697 10.8631 648.968 17.4407 643.979 25.8916L645.701 26.9084ZM665.129 7.92268C673.373 3.30948 682.404 0.999996 692.24 0.999996V-1C682.076 -1 672.707 1.39051 664.152 6.17731L665.129 7.92268ZM692.24 0.999996C702.076 0.999996 711.055 3.30945 719.197 7.92017L720.183 6.17982C711.725 1.39054 702.404 -1 692.24 -1V0.999996ZM719.205 7.92465C727.345 12.4358 733.764 18.7558 738.475 26.9006L740.206 25.8994C735.316 17.4442 728.635 10.8642 720.175 6.17534L719.205 7.92465ZM738.479 26.9084C743.281 35.0423 745.69 44.2142 745.69 54.45H747.69C747.69 43.8858 745.199 34.3577 740.201 25.8916L738.479 26.9084ZM745.69 54.45C745.69 64.6858 743.281 73.8577 738.479 81.9916L740.201 83.0084C745.199 74.5423 747.69 65.0142 747.69 54.45H745.69ZM738.475 81.9994C733.765 90.143 727.296 96.5148 719.052 101.127L720.029 102.873C728.585 98.0852 735.315 91.457 740.206 83.0006L738.475 81.9994ZM719.047 101.13C710.904 105.741 701.974 108.05 692.24 108.05V110.05C702.306 110.05 711.577 107.659 720.033 102.87L719.047 101.13ZM692.24 79C699.07 79 704.473 76.8155 708.299 72.3508L706.781 71.0492C703.408 74.9845 698.61 77 692.24 77V79ZM708.307 72.3419C712.096 67.8159 713.94 61.8167 713.94 54.45H711.94C711.94 61.4833 710.184 66.9841 706.773 71.0581L708.307 72.3419ZM713.94 54.45C713.94 46.9886 712.099 40.9816 708.299 36.5492L706.781 37.8508C710.182 41.8184 711.94 47.3113 711.94 54.45H713.94ZM708.307 36.5581C704.483 31.9901 699.078 29.75 692.24 29.75V31.75C698.602 31.75 703.398 33.8099 706.773 37.8419L708.307 36.5581ZM692.24 29.75C685.308 29.75 679.851 31.9865 676.023 36.5581L677.557 37.8419C680.93 33.8135 685.773 31.75 692.24 31.75V29.75ZM676.031 36.5492C672.232 40.9816 670.39 46.9886 670.39 54.45H672.39C672.39 47.3113 674.149 41.8184 677.549 37.8508L676.031 36.5492ZM670.39 54.45C670.39 61.8167 672.234 67.8159 676.023 72.3419L677.557 71.0581C674.146 66.9841 672.39 61.4833 672.39 54.45H670.39ZM676.031 72.3508C679.861 76.819 685.316 79 692.24 79V77C685.765 77 680.92 74.981 677.549 71.0492L676.031 72.3508ZM768.753 100.2L768.163 101.007L768.174 101.015L768.753 100.2ZM755.403 73.95V72.95H754.34L754.405 74.0108L755.403 73.95ZM790.803 73.95L791.8 73.8683L791.725 72.95H790.803V73.95ZM803.403 81.9L803.958 82.732L803.965 82.7272L803.972 82.7222L803.403 81.9ZM801.303 71.85L800.793 72.7103L800.805 72.7174L800.817 72.7242L801.303 71.85ZM788.703 66.45L788.37 67.393L788.372 67.3936L788.703 66.45ZM771.753 59.4L771.29 60.2863L771.298 60.2904L771.753 59.4ZM760.353 49.35L761.162 48.7618L761.162 48.7618L760.353 49.35ZM755.703 32.4L756.703 32.4145L756.703 32.4072V32.4H755.703ZM760.953 14.85L760.147 14.2579L760.145 14.2608L760.953 14.85ZM775.503 3.74999L775.129 2.82254L775.124 2.82469L775.503 3.74999ZM827.253 9L826.633 9.78489L826.638 9.7888L827.253 9ZM839.403 34.35V35.35H840.44L840.402 34.3133L839.403 34.35ZM803.553 34.35L802.554 34.3833L802.586 35.35H803.553V34.35ZM792.753 27.45L793.46 28.1571L793.479 28.1385L793.496 28.119L792.753 27.45ZM795.303 37.35L794.779 38.2017L794.798 38.2133L794.817 38.2242L795.303 37.35ZM808.053 42.9L807.698 43.835L807.704 43.8369L808.053 42.9ZM824.553 50.1L824.081 50.9818L824.09 50.9862L824.553 50.1ZM835.953 59.7L835.165 60.3153L835.165 60.3153L835.953 59.7ZM835.953 92.7L836.8 93.2315L836.805 93.2241L835.953 92.7ZM822.003 104.7L821.574 103.797L822.003 104.7ZM800.253 108.05C787.709 108.05 777.425 105.138 769.333 99.3849L768.174 101.015C776.681 107.062 787.397 110.05 800.253 110.05V108.05ZM769.344 99.393C761.418 93.5935 757.086 85.1369 756.401 73.8892L754.405 74.0108C755.12 85.7631 759.689 94.8065 768.163 101.007L769.344 99.393ZM755.403 74.95H790.803V72.95H755.403V74.95ZM789.806 74.0317C790.066 77.1943 790.905 79.7253 792.454 81.4753C794.032 83.258 796.23 84.1 798.903 84.1V82.1C796.676 82.1 795.074 81.417 793.952 80.1497C792.801 78.8497 792.041 76.8057 791.8 73.8683L789.806 74.0317ZM798.903 84.1C800.851 84.1 802.557 83.6659 803.958 82.732L802.848 81.0679C801.849 81.7341 800.555 82.1 798.903 82.1V84.1ZM803.972 82.7222C805.583 81.6073 806.353 79.9255 806.353 77.85H804.353C804.353 79.3745 803.824 80.3927 802.834 81.0778L803.972 82.7222ZM806.353 77.85C806.353 74.8962 804.718 72.6033 801.789 70.9758L800.817 72.7242C803.288 74.0967 804.353 75.8038 804.353 77.85H806.353ZM801.813 70.9897C799.026 69.3381 794.751 67.5121 789.034 65.5064L788.372 67.3936C794.056 69.3879 798.18 71.1619 800.793 72.7103L801.813 70.9897ZM789.036 65.507C782.262 63.1161 776.656 60.7828 772.208 58.5096L771.298 60.2904C775.85 62.6172 781.545 64.9839 788.37 67.393L789.036 65.507ZM772.216 58.5138C767.966 56.2918 764.28 53.0493 761.162 48.7618L759.544 49.9382C762.826 54.4507 766.741 57.9082 771.29 60.2862L772.216 58.5138ZM761.162 48.7618C758.12 44.5789 756.605 39.1568 756.703 32.4145L754.703 32.3855C754.601 39.4431 756.187 45.3211 759.544 49.9382L761.162 48.7618ZM756.703 32.4C756.703 25.6764 758.405 20.0415 761.761 15.4392L760.145 14.2608C756.501 19.2585 754.703 25.3236 754.703 32.4H756.703ZM761.759 15.4421C765.241 10.7027 769.938 7.11165 775.882 4.6753L775.124 2.82469C768.869 5.38834 763.865 9.1973 760.147 14.2579L761.759 15.4421ZM775.877 4.67743C781.942 2.23207 788.762 0.999996 796.353 0.999996V-1C788.544 -1 781.465 0.26792 775.129 2.82255L775.877 4.67743ZM796.353 0.999996C809.205 0.999996 819.262 3.96531 826.633 9.78488L827.873 8.21511C820.044 2.03468 809.501 -1 796.353 -1V0.999996ZM826.638 9.7888C834.076 15.5845 838.013 23.7429 838.404 34.3867L840.402 34.3133C839.993 23.1571 835.83 14.4155 827.868 8.2112L826.638 9.7888ZM839.403 33.35H803.553V35.35H839.403V33.35ZM804.553 34.3167C804.449 31.198 803.666 28.729 801.984 27.1672L800.623 28.6328C801.741 29.671 802.458 31.502 802.554 34.3833L804.553 34.3167ZM801.984 27.1672C800.389 25.6868 798.443 24.95 796.203 24.95V26.95C797.964 26.95 799.417 27.5132 800.623 28.6328L801.984 27.1672ZM796.203 24.95C794.533 24.95 793.108 25.5608 792.01 26.781L793.496 28.119C794.198 27.3392 795.074 26.95 796.203 26.95V24.95ZM792.046 26.7429C790.902 27.8867 790.403 29.4767 790.403 31.35H792.403C792.403 29.8233 792.804 28.8133 793.46 28.1571L792.046 26.7429ZM790.403 31.35C790.403 34.1931 791.975 36.4763 794.779 38.2017L795.827 36.4983C793.431 35.0237 792.403 33.3069 792.403 31.35H790.403ZM794.817 38.2242C797.583 39.7607 801.889 41.6313 807.698 43.835L808.408 41.965C802.617 39.7687 798.423 37.9393 795.789 36.4758L794.817 38.2242ZM807.704 43.8369C814.379 46.3278 819.834 48.7101 824.081 50.9818L825.025 49.2182C820.672 46.8899 815.127 44.4722 808.403 41.9631L807.704 43.8369ZM824.09 50.9862C828.357 53.217 832.048 56.3223 835.165 60.3153L836.741 59.0847C833.458 54.8777 829.549 51.583 825.016 49.2138L824.09 50.9862ZM835.165 60.3153C838.203 64.2075 839.753 69.1286 839.753 75.15H841.753C841.753 68.7714 840.104 63.3925 836.741 59.0847L835.165 60.3153ZM839.753 75.15C839.753 81.4774 838.198 87.1438 835.101 92.1759L836.805 93.2241C840.108 87.8562 841.753 81.8226 841.753 75.15H839.753ZM835.106 92.1685C832.019 97.0883 827.524 100.968 821.574 103.797L822.432 105.603C828.683 102.632 833.487 98.5117 836.8 93.2315L835.106 92.1685ZM821.574 103.797C815.637 106.619 808.54 108.05 800.253 108.05V110.05C808.766 110.05 816.17 108.581 822.432 105.603L821.574 103.797Z" fill="#FFD7B3"/>
</svg>
