<svg width="260" height="59" viewBox="0 0 260 59" fill="none" xmlns="http://www.w3.org/2000/svg">
<path d="M7.36 53.84L6.76943 54.6471L6.78062 54.6551L7.36 53.84ZM0.24 39.84V38.84H-0.82272L-0.758153 39.9008L0.24 39.84ZM19.12 39.84L20.1167 39.7583L20.0414 38.84H19.12V39.84ZM25.84 44.08L26.3947 44.912L26.402 44.9072L26.4092 44.9022L25.84 44.08ZM24.72 38.72L24.2102 39.5803L24.2222 39.5874L24.2344 39.5942L24.72 38.72ZM18 35.84L17.6672 36.783L17.6689 36.7836L18 35.84ZM8.96 32.08L8.49673 32.9663L8.50489 32.9704L8.96 32.08ZM2.88 26.72L3.68874 26.1318L3.68874 26.1318L2.88 26.72ZM0.4 17.68L1.3999 17.6945L1.4 17.6872V17.68H0.4ZM3.2 8.32L2.39411 7.72792L2.39199 7.73082L3.2 8.32ZM10.96 2.4L10.586 1.47254L10.5808 1.47469L10.96 2.4ZM38.56 5.2L37.9403 5.9849L37.9454 5.9888L38.56 5.2ZM45.04 18.72V19.72H46.0774L46.0393 18.6833L45.04 18.72ZM25.92 18.72L24.9206 18.7533L24.9528 19.72H25.92V18.72ZM20.16 15.04L20.8671 15.7471L20.8857 15.7285L20.9033 15.709L20.16 15.04ZM21.52 20.32L20.9959 21.1717L21.0149 21.1833L21.0344 21.1942L21.52 20.32ZM28.32 23.28L27.9653 24.215L27.9704 24.2169L28.32 23.28ZM37.12 27.12L36.6483 28.0018L36.6567 28.0062L37.12 27.12ZM43.2 32.24L42.4117 32.8553L42.4117 32.8553L43.2 32.24ZM43.2 49.84L44.0471 50.3715L44.0517 50.3641L43.2 49.84ZM35.76 56.24L35.3306 55.3369L35.76 56.24ZM24.16 57.56C17.5425 57.56 12.159 56.0244 7.93938 53.0249L6.78062 54.6551C11.4144 57.9489 17.2308 59.56 24.16 59.56V57.56ZM7.95051 53.033C3.85125 50.0335 1.59613 45.6602 1.23815 39.7792L-0.758153 39.9008C-0.36946 46.2864 2.12208 51.2465 6.76949 54.647L7.95051 53.033ZM0.24 40.84H19.12V38.84H0.24V40.84ZM18.1233 39.9217C18.2659 41.661 18.7321 43.1245 19.6512 44.1628C20.5994 45.2339 21.9104 45.72 23.44 45.72V43.72C22.3563 43.72 21.6406 43.3928 21.1488 42.8372C20.6279 42.2488 20.2408 41.2724 20.1167 39.7583L18.1233 39.9217ZM23.44 45.72C24.5483 45.72 25.5539 45.4726 26.3947 44.912L25.2853 43.2479C24.8461 43.5407 24.2517 43.72 23.44 43.72V45.72ZM26.4092 44.9022C27.4129 44.2073 27.88 43.1555 27.88 41.92H25.88C25.88 42.6045 25.6537 42.9927 25.2708 43.2578L26.4092 44.9022ZM27.88 41.92C27.88 40.1328 26.8751 38.7733 25.2056 37.8458L24.2344 39.5942C25.445 40.2667 25.88 41.0405 25.88 41.92H27.88ZM25.2298 37.8597C23.7027 36.9548 21.3874 35.9688 18.3311 34.8964L17.6689 36.7836C20.6926 37.8445 22.8573 38.7786 24.2102 39.5803L25.2298 37.8597ZM18.3328 34.897C14.732 33.6261 11.7628 32.3895 9.41511 31.1896L8.50489 32.9704C10.9572 34.2238 14.0147 35.4939 17.6672 36.783L18.3328 34.897ZM9.42325 31.1938C7.22588 30.0451 5.31358 28.366 3.68874 26.1318L2.07126 27.3082C3.85976 29.7673 6.00079 31.6615 8.49675 32.9662L9.42325 31.1938ZM3.68874 26.1318C2.13993 24.0022 1.34885 21.2168 1.3999 17.6945L-0.599895 17.6655C-0.655513 21.5032 0.20674 24.7444 2.07126 27.3082L3.68874 26.1318ZM1.4 17.68C1.4 14.1764 2.28547 11.2715 4.00801 8.90917L2.39199 7.73082C0.381199 10.4885 -0.6 13.8236 -0.6 17.68H1.4ZM4.00588 8.91207C5.80788 6.45936 8.24119 4.59499 11.3392 3.3253L10.5808 1.47469C7.17215 2.87167 4.43212 4.95397 2.39412 7.72792L4.00588 8.91207ZM11.334 3.32744C14.5051 2.04874 18.0822 1.4 22.08 1.4V-0.600002C17.8644 -0.600002 14.0282 0.0845895 10.586 1.47255L11.334 3.32744ZM22.08 1.4C28.8653 1.4 34.1156 2.96532 37.9404 5.98488L39.1796 4.41512C34.8978 1.03468 29.1614 -0.600002 22.08 -0.600002V1.4ZM37.9454 5.9888C41.7899 8.98452 43.8367 13.1995 44.0407 18.7567L46.0393 18.6833C45.8166 12.6138 43.5435 7.81548 39.1747 4.4112L37.9454 5.9888ZM45.04 17.72H25.92V19.72H45.04V17.72ZM26.9194 18.6867C26.8622 16.968 26.4291 15.5024 25.4005 14.5472L24.0396 16.0128C24.5043 16.4443 24.8712 17.272 24.9206 18.7533L26.9194 18.6867ZM25.4005 14.5472C24.4595 13.6735 23.3061 13.24 22 13.24V15.24C22.8273 15.24 23.4872 15.4999 24.0396 16.0128L25.4005 14.5472ZM22 13.24C20.9829 13.24 20.0949 13.6175 19.4167 14.371L20.9033 15.709C21.1851 15.3959 21.5238 15.24 22 15.24V13.24ZM19.4529 14.3329C18.7291 15.0567 18.44 16.04 18.44 17.12H20.44C20.44 16.3866 20.6309 15.9833 20.8671 15.7471L19.4529 14.3329ZM18.44 17.12C18.44 18.8431 19.4055 20.193 20.9959 21.1717L22.0441 19.4683C20.8612 18.7404 20.44 17.9569 20.44 17.12H18.44ZM21.0344 21.1942C22.5401 22.0307 24.8623 23.038 27.9653 24.215L28.6747 22.345C25.591 21.1753 23.3799 20.2093 22.0056 19.4458L21.0344 21.1942ZM27.9704 24.2169C31.5193 25.5411 34.408 26.8034 36.6483 28.0018L37.5917 26.2382C35.2454 24.9832 32.2674 23.6856 28.6696 22.3431L27.9704 24.2169ZM36.6567 28.0062C38.871 29.1637 40.7885 30.7756 42.4117 32.8553L43.9883 31.6247C42.1981 29.3311 40.0624 27.5297 37.5833 26.2338L36.6567 28.0062ZM42.4117 32.8553C43.9562 34.8341 44.76 37.3519 44.76 40.48H46.76C46.76 36.9947 45.8572 34.0192 43.9883 31.6247L42.4117 32.8553ZM44.76 40.48C44.76 43.7741 43.9517 46.7105 42.3483 49.3159L44.0517 50.3641C45.8616 47.4229 46.76 44.1193 46.76 40.48H44.76ZM42.3529 49.3085C40.7593 51.8483 38.4338 53.8616 35.3306 55.3369L36.1894 57.1431C39.5929 55.5251 42.2274 53.2717 44.0471 50.3715L42.3529 49.3085ZM35.3306 55.3369C32.2401 56.8062 28.5268 57.56 24.16 57.56V59.56C28.7532 59.56 32.7733 58.7672 36.1894 57.1431L35.3306 55.3369ZM88.32 49.44L89.2704 49.1291L89.045 48.44H88.32V49.44ZM69.44 49.44V48.44H68.715L68.4896 49.1291L69.44 49.44ZM66.64 58V59H67.365L67.5904 58.3109L66.64 58ZM48 58L47.0609 57.6564L46.5694 59H48V58ZM68.72 1.36V0.36H68.021L67.7809 1.01645L68.72 1.36ZM89.2 1.36L90.1396 1.01762L89.8999 0.36H89.2V1.36ZM109.84 58V59H111.269L110.78 57.6576L109.84 58ZM91.12 58L90.1696 58.3109L90.395 59H91.12V58ZM84 36.08V37.08H85.3763L84.9511 35.771L84 36.08ZM78.88 20.32L79.8311 20.011L78.88 17.0835L77.9289 20.011L78.88 20.32ZM73.76 36.08L72.8089 35.771L72.3837 37.08H73.76V36.08ZM88.32 48.44H69.44V50.44H88.32V48.44ZM68.4896 49.1291L65.6896 57.6891L67.5904 58.3109L70.3904 49.7509L68.4896 49.1291ZM66.64 57H48V59H66.64V57ZM48.9391 58.3436L69.6591 1.70355L67.7809 1.01645L47.0609 57.6564L48.9391 58.3436ZM68.72 2.36H89.2V0.36H68.72V2.36ZM88.2604 1.70238L108.9 58.3424L110.78 57.6576L90.1396 1.01762L88.2604 1.70238ZM109.84 57H91.12V59H109.84V57ZM92.0704 57.6891L89.2704 49.1291L87.3696 49.7509L90.1696 58.3109L92.0704 57.6891ZM84.9511 35.771L79.8311 20.011L77.9289 20.629L83.0489 36.389L84.9511 35.771ZM77.9289 20.011L72.8089 35.771L74.7111 36.389L79.8311 20.629L77.9289 20.011ZM73.76 37.08H84V35.08H73.76V37.08ZM131.635 44.56H130.635V45.56H131.635V44.56ZM148.755 44.56H149.755V43.56H148.755V44.56ZM148.755 58V59H149.755V58H148.755ZM113.875 58H112.875V59H113.875V58ZM113.875 1.36V0.36H112.875V1.36H113.875ZM131.635 1.36H132.635V0.36H131.635V1.36ZM131.635 45.56H148.755V43.56H131.635V45.56ZM147.755 44.56V58H149.755V44.56H147.755ZM148.755 57H113.875V59H148.755V57ZM114.875 58V1.36H112.875V58H114.875ZM113.875 2.36H131.635V0.36H113.875V2.36ZM130.635 1.36V44.56H132.635V1.36H130.635ZM190.664 49.44L191.614 49.1291L191.389 48.44H190.664V49.44ZM171.784 49.44V48.44H171.059L170.833 49.1291L171.784 49.44ZM168.984 58V59H169.709L169.934 58.3109L168.984 58ZM150.344 58L149.405 57.6564L148.913 59H150.344V58ZM171.064 1.36V0.36H170.365L170.125 1.01645L171.064 1.36ZM191.544 1.36L192.483 1.01762L192.244 0.36H191.544V1.36ZM212.184 58V59H213.612L213.123 57.6576L212.184 58ZM193.464 58L192.513 58.3109L192.739 59H193.464V58ZM186.344 36.08V37.08H187.72L187.295 35.771L186.344 36.08ZM181.224 20.32L182.175 20.011L181.224 17.0835L180.273 20.011L181.224 20.32ZM176.104 36.08L175.153 35.771L174.727 37.08H176.104V36.08ZM190.664 48.44H171.784V50.44H190.664V48.44ZM170.833 49.1291L168.033 57.6891L169.934 58.3109L172.734 49.7509L170.833 49.1291ZM168.984 57H150.344V59H168.984V57ZM151.283 58.3436L172.003 1.70355L170.125 1.01645L149.405 57.6564L151.283 58.3436ZM171.064 2.36H191.544V0.36H171.064V2.36ZM190.604 1.70238L211.244 58.3424L213.123 57.6576L192.483 1.01762L190.604 1.70238ZM212.184 57H193.464V59H212.184V57ZM194.414 57.6891L191.614 49.1291L189.713 49.7509L192.513 58.3109L194.414 57.6891ZM187.295 35.771L182.175 20.011L180.273 20.629L185.393 36.389L187.295 35.771ZM180.273 20.011L175.153 35.771L177.055 36.389L182.175 20.629L180.273 20.011ZM176.104 37.08H186.344V35.08H176.104V37.08ZM221.579 53.84L220.988 54.6471L220.999 54.6551L221.579 53.84ZM214.459 39.84V38.84H213.396L213.461 39.9008L214.459 39.84ZM233.339 39.84L234.335 39.7583L234.26 38.84H233.339V39.84ZM240.059 44.08L240.613 44.912L240.621 44.9072L240.628 44.9022L240.059 44.08ZM238.939 38.72L238.429 39.5803L238.441 39.5874L238.453 39.5942L238.939 38.72ZM232.219 35.84L231.886 36.783L231.888 36.7836L232.219 35.84ZM223.179 32.08L222.715 32.9663L222.724 32.9704L223.179 32.08ZM217.099 26.72L217.907 26.1318L217.907 26.1318L217.099 26.72ZM214.619 17.68L215.619 17.6945L215.619 17.6872V17.68H214.619ZM217.419 8.32L216.613 7.72792L216.611 7.73082L217.419 8.32ZM225.179 2.4L224.805 1.47254L224.8 1.47469L225.179 2.4ZM252.779 5.2L252.159 5.9849L252.164 5.9888L252.779 5.2ZM259.259 18.72V19.72H260.296L260.258 18.6833L259.259 18.72ZM240.139 18.72L239.139 18.7533L239.172 19.72H240.139V18.72ZM234.379 15.04L235.086 15.7471L235.104 15.7285L235.122 15.709L234.379 15.04ZM235.739 20.32L235.215 21.1717L235.234 21.1833L235.253 21.1942L235.739 20.32ZM242.539 23.28L242.184 24.215L242.189 24.2169L242.539 23.28ZM251.339 27.12L250.867 28.0018L250.875 28.0062L251.339 27.12ZM257.419 32.24L256.63 32.8553L256.63 32.8553L257.419 32.24ZM257.419 49.84L258.266 50.3715L258.27 50.3641L257.419 49.84ZM249.979 56.24L249.549 55.3369L249.979 56.24ZM238.379 57.56C231.761 57.56 226.378 56.0244 222.158 53.0249L220.999 54.6551C225.633 57.9489 231.45 59.56 238.379 59.56V57.56ZM222.169 53.033C218.07 50.0335 215.815 45.6602 215.457 39.7792L213.461 39.9008C213.849 46.2864 216.341 51.2465 220.988 54.647L222.169 53.033ZM214.459 40.84H233.339V38.84H214.459V40.84ZM232.342 39.9217C232.485 41.661 232.951 43.1245 233.87 44.1628C234.818 45.2339 236.129 45.72 237.659 45.72V43.72C236.575 43.72 235.859 43.3928 235.368 42.8372C234.847 42.2488 234.46 41.2724 234.335 39.7583L232.342 39.9217ZM237.659 45.72C238.767 45.72 239.773 45.4726 240.613 44.912L239.504 43.2479C239.065 43.5407 238.47 43.72 237.659 43.72V45.72ZM240.628 44.9022C241.632 44.2073 242.099 43.1555 242.099 41.92H240.099C240.099 42.6045 239.872 42.9927 239.49 43.2578L240.628 44.9022ZM242.099 41.92C242.099 40.1328 241.094 38.7733 239.424 37.8458L238.453 39.5942C239.664 40.2667 240.099 41.0405 240.099 41.92H242.099ZM239.449 37.8597C237.921 36.9548 235.606 35.9688 232.55 34.8964L231.888 36.7836C234.911 37.8445 237.076 38.7786 238.429 39.5803L239.449 37.8597ZM232.552 34.897C228.951 33.6261 225.982 32.3895 223.634 31.1896L222.724 32.9704C225.176 34.2238 228.233 35.4939 231.886 36.783L232.552 34.897ZM223.642 31.1938C221.445 30.0451 219.532 28.366 217.907 26.1318L216.29 27.3082C218.079 29.7673 220.22 31.6615 222.715 32.9662L223.642 31.1938ZM217.907 26.1318C216.359 24.0022 215.568 21.2168 215.619 17.6945L213.619 17.6655C213.563 21.5032 214.425 24.7444 216.29 27.3082L217.907 26.1318ZM215.619 17.68C215.619 14.1764 216.504 11.2715 218.227 8.90917L216.611 7.73082C214.6 10.4885 213.619 13.8236 213.619 17.68H215.619ZM218.225 8.91207C220.027 6.45936 222.46 4.59499 225.558 3.3253L224.8 1.47469C221.391 2.87167 218.651 4.95397 216.613 7.72792L218.225 8.91207ZM225.553 3.32744C228.724 2.04874 232.301 1.4 236.299 1.4V-0.600002C232.083 -0.600002 228.247 0.0845895 224.805 1.47255L225.553 3.32744ZM236.299 1.4C243.084 1.4 248.334 2.96532 252.159 5.98488L253.398 4.41512C249.117 1.03468 243.38 -0.600002 236.299 -0.600002V1.4ZM252.164 5.9888C256.009 8.98452 258.055 13.1995 258.259 18.7567L260.258 18.6833C260.035 12.6138 257.762 7.81548 253.393 4.4112L252.164 5.9888ZM259.259 17.72H240.139V19.72H259.259V17.72ZM241.138 18.6867C241.081 16.968 240.648 15.5024 239.619 14.5472L238.258 16.0128C238.723 16.4443 239.09 17.272 239.139 18.7533L241.138 18.6867ZM239.619 14.5472C238.678 13.6735 237.525 13.24 236.219 13.24V15.24C237.046 15.24 237.706 15.4999 238.258 16.0128L239.619 14.5472ZM236.219 13.24C235.202 13.24 234.314 13.6175 233.635 14.371L235.122 15.709C235.404 15.3959 235.743 15.24 236.219 15.24V13.24ZM233.672 14.3329C232.948 15.0567 232.659 16.04 232.659 17.12H234.659C234.659 16.3866 234.85 15.9833 235.086 15.7471L233.672 14.3329ZM232.659 17.12C232.659 18.8431 233.624 20.193 235.215 21.1717L236.263 19.4683C235.08 18.7404 234.659 17.9569 234.659 17.12H232.659ZM235.253 21.1942C236.759 22.0307 239.081 23.038 242.184 24.215L242.893 22.345C239.81 21.1753 237.599 20.2093 236.224 19.4458L235.253 21.1942ZM242.189 24.2169C245.738 25.5411 248.627 26.8034 250.867 28.0018L251.81 26.2382C249.464 24.9832 246.486 23.6856 242.888 22.3431L242.189 24.2169ZM250.875 28.0062C253.09 29.1637 255.007 30.7756 256.63 32.8553L258.207 31.6247C256.417 29.3311 254.281 27.5297 251.802 26.2338L250.875 28.0062ZM256.63 32.8553C258.175 34.8341 258.979 37.3519 258.979 40.48H260.979C260.979 36.9947 260.076 34.0192 258.207 31.6247L256.63 32.8553ZM258.979 40.48C258.979 43.7741 258.17 46.7105 256.567 49.3159L258.27 50.3641C260.08 47.4229 260.979 44.1193 260.979 40.48H258.979ZM256.572 49.3085C254.978 51.8483 252.653 53.8616 249.549 55.3369L250.408 57.1431C253.812 55.5251 256.446 53.2717 258.266 50.3715L256.572 49.3085ZM249.549 55.3369C246.459 56.8062 242.746 57.56 238.379 57.56V59.56C242.972 59.56 246.992 58.7672 250.408 57.1431L249.549 55.3369Z" fill="#FFD7B3"/>
</svg>
