<svg width="992" height="641" viewBox="0 0 992 641" fill="none" xmlns="http://www.w3.org/2000/svg">
<path d="M626.368 641C616.178 641 605.988 637.71 597.944 630.659C582.391 617.028 582.391 594.467 597.944 580.836L895.061 320.441L597.944 60.0461C582.391 46.4153 582.391 23.8539 597.944 10.2231C613.497 -3.4077 639.24 -3.4077 654.793 10.2231L980.335 295.529C995.888 309.16 995.888 331.721 980.335 345.352L654.793 630.659C646.748 637.71 636.558 641 626.368 641Z" fill="white"/>
<path d="M942.839 355.688H40.2235C18.2347 355.688 0 339.707 0 320.436C0 301.165 18.2347 285.184 40.2235 285.184H942.839C964.828 285.184 983.063 301.165 983.063 320.436C983.063 339.707 964.828 355.688 942.839 355.688Z" fill="white"/>
</svg>
