<svg width="754" height="335" viewBox="0 0 754 335" fill="none" xmlns="http://www.w3.org/2000/svg">
<path d="M68.9955 38.1C67.6955 36 65.8455 34.4 63.4455 33.3C61.0455 32.1 58.1455 31.5 54.7455 31.5C48.3455 31.5 43.3955 33.6 39.8955 37.8C36.3955 41.9 34.6455 47.55 34.6455 54.75C34.6455 63.05 36.5955 69.25 40.4955 73.35C44.3955 77.45 50.3955 79.5 58.4955 79.5C66.1955 79.5 72.3955 76.4 77.0955 70.2H50.5455V46.65H104.696V79.95C100.096 87.85 93.7455 94.65 85.6455 100.35C77.5455 105.95 67.2955 108.75 54.8955 108.75C43.8955 108.75 34.2955 106.5 26.0955 102C17.9955 97.4 11.7455 91 7.34551 82.8C3.04551 74.6 0.895508 65.25 0.895508 54.75C0.895508 44.25 3.04551 34.9 7.34551 26.7C11.7455 18.5 17.9955 12.15 26.0955 7.65C34.1955 3.05 43.6955 0.749995 54.5955 0.749995C68.4955 0.749995 79.7955 4.1 88.4955 10.8C97.2955 17.5 102.496 26.6 104.096 38.1H68.9955ZM149.988 82.8H182.088V108H116.688V1.8H149.988V82.8ZM260.667 91.95H225.267L220.017 108H185.067L223.917 1.8H262.317L301.017 108H265.917L260.667 91.95ZM252.567 66.9L242.967 37.35L233.367 66.9H252.567ZM352.833 1.8C363.933 1.8 373.633 4.05 381.933 8.54999C390.333 13.05 396.783 19.3 401.283 27.3C405.783 35.3 408.033 44.4 408.033 54.6C408.033 64.7 405.783 73.8 401.283 81.9C396.783 90 390.333 96.4 381.933 101.1C373.633 105.7 363.933 108 352.833 108H308.583V1.8H352.833ZM349.833 78.3C357.333 78.3 363.283 76.25 367.683 72.15C372.083 68.05 374.283 62.2 374.283 54.6C374.283 47 372.083 41.15 367.683 37.05C363.283 32.95 357.333 30.9 349.833 30.9H341.883V78.3H349.833ZM417.058 54.75C417.058 44.25 419.158 34.9 423.358 26.7C427.658 18.5 433.758 12.15 441.658 7.65C449.558 3.05 458.858 0.749995 469.558 0.749995C478.758 0.749995 486.958 2.5 494.158 6C501.458 9.4 507.358 14.25 511.858 20.55C516.458 26.85 519.508 34.2 521.008 42.6H485.908C484.308 39.1 482.008 36.4 479.008 34.5C476.108 32.5 472.758 31.5 468.958 31.5C463.358 31.5 458.908 33.6 455.608 37.8C452.408 42 450.808 47.65 450.808 54.75C450.808 61.85 452.408 67.5 455.608 71.7C458.908 75.9 463.358 78 468.958 78C472.758 78 476.108 77.05 479.008 75.15C482.008 73.15 484.308 70.4 485.908 66.9H521.008C519.508 75.3 516.458 82.65 511.858 88.95C507.358 95.25 501.458 100.15 494.158 103.65C486.958 107.05 478.758 108.75 469.558 108.75C458.858 108.75 449.558 106.5 441.658 102C433.758 97.4 427.658 91 423.358 82.8C419.158 74.6 417.058 65.25 417.058 54.75ZM584.747 109.05C574.747 109.05 565.547 106.7 557.147 102C548.847 97.3 542.247 90.8 537.347 82.5C532.447 74.2 529.997 64.85 529.997 54.45C529.997 44.05 532.447 34.7 537.347 26.4C542.247 18.1 548.847 11.65 557.147 7.04999C565.547 2.35 574.747 -4.29153e-06 584.747 -4.29153e-06C594.747 -4.29153e-06 603.897 2.35 612.197 7.04999C620.497 11.65 627.047 18.1 631.847 26.4C636.747 34.7 639.197 44.05 639.197 54.45C639.197 64.85 636.747 74.2 631.847 82.5C627.047 90.8 620.447 97.3 612.047 102C603.747 106.7 594.647 109.05 584.747 109.05ZM584.747 78C591.347 78 596.447 75.9 600.047 71.7C603.647 67.4 605.447 61.65 605.447 54.45C605.447 47.15 603.647 41.4 600.047 37.2C596.447 32.9 591.347 30.75 584.747 30.75C578.047 30.75 572.897 32.9 569.297 37.2C565.697 41.4 563.897 47.15 563.897 54.45C563.897 61.65 565.697 67.4 569.297 71.7C572.897 75.9 578.047 78 584.747 78ZM753.06 108H719.76L684.51 54.6V108H651.21V1.8H684.51L719.76 56.1V1.8H753.06V108ZM182.741 263.1C181.441 261 179.591 259.4 177.191 258.3C174.791 257.1 171.891 256.5 168.491 256.5C162.091 256.5 157.141 258.6 153.641 262.8C150.141 266.9 148.391 272.55 148.391 279.75C148.391 288.05 150.341 294.25 154.241 298.35C158.141 302.45 164.141 304.5 172.241 304.5C179.941 304.5 186.141 301.4 190.841 295.2H164.291V271.65H218.441V304.95C213.841 312.85 207.491 319.65 199.391 325.35C191.291 330.95 181.041 333.75 168.641 333.75C157.641 333.75 148.041 331.5 139.841 327C131.741 322.4 125.491 316 121.091 307.8C116.791 299.6 114.641 290.25 114.641 279.75C114.641 269.25 116.791 259.9 121.091 251.7C125.491 243.5 131.741 237.15 139.841 232.65C147.941 228.05 157.441 225.75 168.341 225.75C182.241 225.75 193.541 229.1 202.241 235.8C211.041 242.5 216.241 251.6 217.841 263.1H182.741ZM283.834 333L263.884 294.9H263.734V333H230.434V226.8H279.934C288.534 226.8 295.884 228.35 301.984 231.45C308.084 234.45 312.634 238.6 315.634 243.9C318.734 249.1 320.284 255 320.284 261.6C320.284 268.7 318.284 275 314.284 280.5C310.384 286 304.734 289.95 297.334 292.35L320.434 333H283.834ZM263.734 272.7H276.934C280.134 272.7 282.534 272 284.134 270.6C285.734 269.1 286.534 266.8 286.534 263.7C286.534 260.9 285.684 258.7 283.984 257.1C282.384 255.5 280.034 254.7 276.934 254.7H263.734V272.7ZM382.672 334.05C372.672 334.05 363.472 331.7 355.072 327C346.772 322.3 340.172 315.8 335.272 307.5C330.372 299.2 327.922 289.85 327.922 279.45C327.922 269.05 330.372 259.7 335.272 251.4C340.172 243.1 346.772 236.65 355.072 232.05C363.472 227.35 372.672 225 382.672 225C392.672 225 401.822 227.35 410.122 232.05C418.422 236.65 424.972 243.1 429.772 251.4C434.672 259.7 437.122 269.05 437.122 279.45C437.122 289.85 434.672 299.2 429.772 307.5C424.972 315.8 418.372 322.3 409.972 327C401.672 331.7 392.572 334.05 382.672 334.05ZM382.672 303C389.272 303 394.372 300.9 397.972 296.7C401.572 292.4 403.372 286.65 403.372 279.45C403.372 272.15 401.572 266.4 397.972 262.2C394.372 257.9 389.272 255.75 382.672 255.75C375.972 255.75 370.822 257.9 367.222 262.2C363.622 266.4 361.822 272.15 361.822 279.45C361.822 286.65 363.622 292.4 367.222 296.7C370.822 300.9 375.972 303 382.672 303ZM481.685 226.8V286.65C481.685 291.55 482.735 295.45 484.835 298.35C487.035 301.15 490.535 302.55 495.335 302.55C500.135 302.55 503.685 301.15 505.985 298.35C508.285 295.45 509.435 291.55 509.435 286.65V226.8H542.585V286.65C542.585 296.75 540.485 305.4 536.285 312.6C532.085 319.7 526.335 325.05 519.035 328.65C511.735 332.25 503.585 334.05 494.585 334.05C485.585 334.05 477.585 332.25 470.585 328.65C463.685 325.05 458.285 319.7 454.385 312.6C450.485 305.5 448.535 296.85 448.535 286.65V226.8H481.685ZM643.797 263.25C643.797 269.95 642.247 276.05 639.147 281.55C636.047 286.95 631.447 291.25 625.347 294.45C619.347 297.65 612.047 299.25 603.447 299.25H590.247V333H556.947V226.8H603.447C616.447 226.8 626.397 230.1 633.297 236.7C640.297 243.3 643.797 252.15 643.797 263.25ZM599.697 273C606.597 273 610.047 269.75 610.047 263.25C610.047 256.75 606.597 253.5 599.697 253.5H590.247V273H599.697Z" fill="white"/>
<path d="M68.9955 38.1L68.1452 38.6264L68.4385 39.1H68.9955V38.1ZM63.4455 33.3L62.9983 34.1944L63.0135 34.202L63.0289 34.2091L63.4455 33.3ZM39.8955 37.8L40.6561 38.4493L40.6637 38.4402L39.8955 37.8ZM40.4955 73.35L39.7709 74.0392L39.7709 74.0392L40.4955 73.35ZM77.0955 70.2L77.8924 70.8041L79.1084 69.2H77.0955V70.2ZM50.5455 70.2H49.5455V71.2H50.5455V70.2ZM50.5455 46.65V45.65H49.5455V46.65H50.5455ZM104.696 46.65H105.696V45.65H104.696V46.65ZM104.696 79.95L105.56 80.4532L105.696 80.2199V79.95H104.696ZM85.6455 100.35L86.2142 101.173L86.221 101.168L85.6455 100.35ZM26.0955 102L25.6017 102.87L25.608 102.873L25.6144 102.877L26.0955 102ZM7.34551 82.8L6.45985 83.2644L6.46435 83.2728L7.34551 82.8ZM7.34551 26.7L6.46431 26.2272L6.45989 26.2356L7.34551 26.7ZM26.0955 7.65L26.5812 8.52419L26.5893 8.51956L26.0955 7.65ZM88.4955 10.8L87.8854 11.5923L87.8897 11.5956L88.4955 10.8ZM104.096 38.1V39.1H105.244L105.086 37.9622L104.096 38.1ZM69.8458 37.5736C68.4348 35.2944 66.4283 33.5671 63.8622 32.3909L63.0289 34.2091C65.2627 35.2329 66.9562 36.7056 68.1452 38.6264L69.8458 37.5736ZM63.8927 32.4056C61.3218 31.1201 58.2604 30.5 54.7455 30.5V32.5C58.0306 32.5 60.7692 33.0799 62.9983 34.1944L63.8927 32.4056ZM54.7455 30.5C48.105 30.5 42.8506 32.6918 39.1273 37.1598L40.6637 38.4402C43.9404 34.5082 48.586 32.5 54.7455 32.5V30.5ZM39.1349 37.1507C35.4351 41.4849 33.6455 47.3926 33.6455 54.75H35.6455C35.6455 47.7074 37.3559 42.3151 40.6561 38.4493L39.1349 37.1507ZM33.6455 54.75C33.6455 63.1881 35.6265 69.6823 39.7709 74.0392L41.2201 72.6608C37.5645 68.8177 35.6455 62.9119 35.6455 54.75H33.6455ZM39.7709 74.0392C43.9289 78.4104 50.2415 80.5 58.4955 80.5V78.5C50.5495 78.5 44.8621 76.4896 41.2201 72.6608L39.7709 74.0392ZM58.4955 80.5C66.5123 80.5 73.0057 77.2504 77.8924 70.8041L76.2986 69.5959C71.7853 75.5496 65.8787 78.5 58.4955 78.5V80.5ZM77.0955 69.2H50.5455V71.2H77.0955V69.2ZM51.5455 70.2V46.65H49.5455V70.2H51.5455ZM50.5455 47.65H104.696V45.65H50.5455V47.65ZM103.696 46.65V79.95H105.696V46.65H103.696ZM103.831 79.4468C99.3097 87.2123 93.0622 93.908 85.07 99.5322L86.221 101.168C94.4288 95.392 100.881 88.4877 105.56 80.4532L103.831 79.4468ZM85.0768 99.5274C77.1827 104.985 67.1452 107.75 54.8955 107.75V109.75C67.4459 109.75 77.9083 106.915 86.2142 101.173L85.0768 99.5274ZM54.8955 107.75C44.034 107.75 34.6052 105.529 26.5766 101.123L25.6144 102.877C33.9859 107.471 43.757 109.75 54.8955 109.75V107.75ZM26.5893 101.13C18.6531 96.6234 12.5374 90.3609 8.22667 82.3272L6.46435 83.2728C10.9536 91.6391 17.3379 98.1766 25.6017 102.87L26.5893 101.13ZM8.23113 82.3356C4.01581 74.2971 1.89551 65.1101 1.89551 54.75H-0.104492C-0.104492 65.3899 2.0752 74.9029 6.45989 83.2644L8.23113 82.3356ZM1.89551 54.75C1.89551 44.3899 4.01581 35.2029 8.23113 27.1644L6.45989 26.2356C2.0752 34.5971 -0.104492 44.1101 -0.104492 54.75H1.89551ZM8.22667 27.1728C12.5364 19.141 18.6495 12.9306 26.5812 8.52415L25.6099 6.77584C17.3415 11.3694 10.9546 17.859 6.46435 26.2272L8.22667 27.1728ZM26.5893 8.51956C34.5149 4.0186 43.839 1.74999 54.5955 1.74999V-0.250005C43.5521 -0.250005 33.8761 2.08139 25.6017 6.78043L26.5893 8.51956ZM54.5955 1.74999C68.3343 1.74999 79.4022 5.05925 87.8854 11.5923L89.1057 10.0077C80.1889 3.14074 68.6567 -0.250005 54.5955 -0.250005V1.74999ZM87.8897 11.5956C96.4684 18.1271 101.539 26.9848 103.105 38.2378L105.086 37.9622C103.452 26.2152 98.1227 16.8729 89.1013 10.0044L87.8897 11.5956ZM104.096 37.1H68.9955V39.1H104.096V37.1ZM149.988 82.8H148.988V83.8H149.988V82.8ZM182.088 82.8H183.088V81.8H182.088V82.8ZM182.088 108V109H183.088V108H182.088ZM116.688 108H115.688V109H116.688V108ZM116.688 1.8V0.799999H115.688V1.8H116.688ZM149.988 1.8H150.988V0.799999H149.988V1.8ZM149.988 83.8H182.088V81.8H149.988V83.8ZM181.088 82.8V108H183.088V82.8H181.088ZM182.088 107H116.688V109H182.088V107ZM117.688 108V1.8H115.688V108H117.688ZM116.688 2.8H149.988V0.799999H116.688V2.8ZM148.988 1.8V82.8H150.988V1.8H148.988ZM260.667 91.95L261.618 91.6391L261.392 90.95H260.667V91.95ZM225.267 91.95V90.95H224.542L224.317 91.6391L225.267 91.95ZM220.017 108V109H220.742L220.968 108.311L220.017 108ZM185.067 108L184.128 107.656L183.637 109H185.067V108ZM223.917 1.8V0.799999H223.218L222.978 1.45645L223.917 1.8ZM262.317 1.8L263.257 1.45762L263.017 0.799999H262.317V1.8ZM301.017 108V109H302.446L301.957 107.658L301.017 108ZM265.917 108L264.967 108.311L265.192 109H265.917V108ZM252.567 66.9V67.9H253.944L253.518 66.591L252.567 66.9ZM242.967 37.35L243.918 37.041L242.967 34.1135L242.016 37.041L242.967 37.35ZM233.367 66.9L232.416 66.591L231.991 67.9H233.367V66.9ZM260.667 90.95H225.267V92.95H260.667V90.95ZM224.317 91.6391L219.067 107.689L220.968 108.311L226.218 92.2609L224.317 91.6391ZM220.017 107H185.067V109H220.017V107ZM186.007 108.344L224.857 2.14355L222.978 1.45645L184.128 107.656L186.007 108.344ZM223.917 2.8H262.317V0.799999H223.917V2.8ZM261.378 2.14238L300.078 108.342L301.957 107.658L263.257 1.45762L261.378 2.14238ZM301.017 107H265.917V109H301.017V107ZM266.868 107.689L261.618 91.6391L259.717 92.2609L264.967 108.311L266.868 107.689ZM253.518 66.591L243.918 37.041L242.016 37.659L251.616 67.209L253.518 66.591ZM242.016 37.041L232.416 66.591L234.318 67.209L243.918 37.659L242.016 37.041ZM233.367 67.9H252.567V65.9H233.367V67.9ZM381.933 8.54999L381.456 9.42911L381.461 9.43147L381.933 8.54999ZM401.283 27.3L402.155 26.8097L402.155 26.8097L401.283 27.3ZM401.283 81.9L402.157 82.3856L402.157 82.3856L401.283 81.9ZM381.933 101.1L382.418 101.975L382.421 101.973L381.933 101.1ZM308.583 108H307.583V109H308.583V108ZM308.583 1.8V0.799999H307.583V1.8H308.583ZM367.683 72.15L368.365 72.8816L368.365 72.8816L367.683 72.15ZM367.683 37.05L368.365 36.3184L368.365 36.3184L367.683 37.05ZM341.883 30.9V29.9H340.883V30.9H341.883ZM341.883 78.3H340.883V79.3H341.883V78.3ZM352.833 2.8C363.796 2.8 373.326 5.02133 381.456 9.4291L382.41 7.67089C373.94 3.07867 364.07 0.799999 352.833 0.799999V2.8ZM381.461 9.43147C389.7 13.8453 396.008 19.9625 400.411 27.7903L402.155 26.8097C397.558 18.6375 390.966 12.2547 382.405 7.66851L381.461 9.43147ZM400.411 27.7903C404.818 35.6244 407.033 44.5522 407.033 54.6H409.033C409.033 44.2478 406.748 34.9756 402.155 26.8097L400.411 27.7903ZM407.033 54.6C407.033 64.5458 404.819 73.4761 400.409 81.4144L402.157 82.3856C406.747 74.1239 409.033 64.8542 409.033 54.6H407.033ZM400.409 81.4144C396.003 89.3455 389.689 95.6143 381.445 100.227L382.421 101.973C390.977 97.1857 397.563 90.6545 402.157 82.3856L400.409 81.4144ZM381.448 100.225C373.32 104.73 363.792 107 352.833 107V109C364.074 109 373.946 106.67 382.418 101.975L381.448 100.225ZM352.833 107H308.583V109H352.833V107ZM309.583 108V1.8H307.583V108H309.583ZM308.583 2.8H352.833V0.799999H308.583V2.8ZM349.833 79.3C357.521 79.3 363.737 77.194 368.365 72.8816L367.001 71.4184C362.829 75.306 357.145 77.3 349.833 77.3V79.3ZM368.365 72.8816C373.018 68.5452 375.283 62.3996 375.283 54.6H373.283C373.283 62.0004 371.148 67.5548 367.001 71.4184L368.365 72.8816ZM375.283 54.6C375.283 46.8004 373.018 40.6548 368.365 36.3184L367.001 37.7816C371.148 41.6452 373.283 47.1996 373.283 54.6H375.283ZM368.365 36.3184C363.737 32.006 357.521 29.9 349.833 29.9V31.9C357.145 31.9 362.829 33.894 367.001 37.7816L368.365 36.3184ZM349.833 29.9H341.883V31.9H349.833V29.9ZM340.883 30.9V78.3H342.883V30.9H340.883ZM341.883 79.3H349.833V77.3H341.883V79.3ZM423.358 26.7L422.472 26.2356L422.468 26.2441L423.358 26.7ZM441.658 7.65L442.153 8.51895L442.161 8.51417L441.658 7.65ZM494.158 6L493.72 6.89937L493.728 6.903L493.735 6.9065L494.158 6ZM511.858 20.55L511.044 21.1313L511.05 21.1397L511.858 20.55ZM521.008 42.6V43.6H522.202L521.992 42.4242L521.008 42.6ZM485.908 42.6L484.998 43.0158L485.265 43.6H485.908V42.6ZM479.008 34.5L478.44 35.3232L478.456 35.3343L478.473 35.3448L479.008 34.5ZM455.608 37.8L454.821 37.1822L454.817 37.188L454.812 37.194L455.608 37.8ZM455.608 71.7L454.812 72.306L454.817 72.312L454.821 72.3178L455.608 71.7ZM479.008 75.15L479.556 75.9865L479.562 75.982L479.008 75.15ZM485.908 66.9V65.9H485.265L484.998 66.4842L485.908 66.9ZM521.008 66.9L521.992 67.0758L522.202 65.9H521.008V66.9ZM511.858 88.95L511.05 88.3603L511.044 88.3688L511.858 88.95ZM494.158 103.65L494.585 104.554L494.59 104.552L494.158 103.65ZM441.658 102L441.154 102.864L441.163 102.869L441.658 102ZM423.358 82.8L422.468 83.2559L422.472 83.2644L423.358 82.8ZM418.058 54.75C418.058 44.3862 420.129 35.1962 424.248 27.1559L422.468 26.2441C418.186 34.6038 416.058 44.1138 416.058 54.75H418.058ZM424.243 27.1644C428.456 19.1305 434.422 12.9224 442.153 8.51891L441.163 6.78108C433.093 11.3776 426.859 17.8695 422.472 26.2356L424.243 27.1644ZM442.161 8.51417C449.884 4.01728 459.004 1.74999 469.558 1.74999V-0.250005C458.711 -0.250005 449.232 2.08271 441.154 6.78582L442.161 8.51417ZM469.558 1.74999C478.629 1.74999 486.676 3.47481 493.72 6.89937L494.595 5.10063C487.24 1.52518 478.886 -0.250005 469.558 -0.250005V1.74999ZM493.735 6.9065C500.886 10.2367 506.648 14.9774 511.044 21.1312L512.671 19.9688C508.067 13.5226 502.03 8.56329 494.58 5.0935L493.735 6.9065ZM511.05 21.1397C515.552 27.3058 518.547 34.5111 520.023 42.7758L521.992 42.4242C520.468 33.8889 517.363 26.3942 512.665 19.9603L511.05 21.1397ZM521.008 41.6H485.908V43.6H521.008V41.6ZM486.817 42.1842C485.144 38.5234 482.72 35.6676 479.543 33.6552L478.473 35.3448C481.295 37.1324 483.472 39.6766 484.998 43.0158L486.817 42.1842ZM479.575 33.6768C476.495 31.5525 472.944 30.5 468.958 30.5V32.5C472.572 32.5 475.72 33.4475 478.44 35.3232L479.575 33.6768ZM468.958 30.5C463.068 30.5 458.321 32.7276 454.821 37.1822L456.394 38.4178C459.494 34.4723 463.647 32.5 468.958 32.5V30.5ZM454.812 37.194C451.44 41.6195 449.808 47.5059 449.808 54.75H451.808C451.808 47.7941 453.375 42.3805 456.403 38.406L454.812 37.194ZM449.808 54.75C449.808 61.9941 451.44 67.8805 454.812 72.306L456.403 71.094C453.375 67.1195 451.808 61.7059 451.808 54.75H449.808ZM454.821 72.3178C458.321 76.7723 463.068 79 468.958 79V77C463.647 77 459.494 75.0277 456.394 71.0822L454.821 72.3178ZM468.958 79C472.933 79 476.477 78.0033 479.556 75.9865L478.46 74.3135C475.738 76.0966 472.582 77 468.958 77V79ZM479.562 75.982C482.727 73.8719 485.145 70.9729 486.817 67.3158L484.998 66.4842C483.47 69.8271 481.288 72.4281 478.453 74.3179L479.562 75.982ZM485.908 67.9H521.008V65.9H485.908V67.9ZM520.023 66.7242C518.547 74.9889 515.552 82.1942 511.05 88.3603L512.665 89.5397C517.363 83.1058 520.468 75.6111 521.992 67.0758L520.023 66.7242ZM511.044 88.3688C506.646 94.5251 500.88 99.3178 493.725 102.748L494.59 104.552C502.035 100.982 508.069 95.9749 512.671 89.5312L511.044 88.3688ZM493.731 102.746C486.683 106.074 478.633 107.75 469.558 107.75V109.75C478.882 109.75 487.232 108.026 494.585 104.554L493.731 102.746ZM469.558 107.75C459 107.75 449.877 105.531 442.153 101.131L441.163 102.869C449.238 107.469 458.715 109.75 469.558 109.75V107.75ZM442.161 101.136C434.426 96.6317 428.457 90.3713 424.243 82.3356L422.472 83.2644C426.858 91.6287 433.09 98.1683 441.154 102.864L442.161 101.136ZM424.248 82.3441C420.129 74.3038 418.058 65.1138 418.058 54.75H416.058C416.058 65.3862 418.186 74.8962 422.468 83.2559L424.248 82.3441ZM557.147 102L556.654 102.87L556.659 102.873L557.147 102ZM537.347 82.5L536.486 83.0084L536.486 83.0084L537.347 82.5ZM557.147 7.04999L557.632 7.92466L557.635 7.92268L557.147 7.04999ZM612.197 7.04999L611.704 7.9202L611.712 7.92465L612.197 7.04999ZM631.847 26.4L630.981 26.9006L630.986 26.9084L631.847 26.4ZM631.847 82.5L630.986 81.9916L630.981 81.9994L631.847 82.5ZM612.047 102L611.559 101.127L611.554 101.13L612.047 102ZM600.047 71.7L600.806 72.3508L600.814 72.3419L600.047 71.7ZM600.047 37.2L599.28 37.842L599.288 37.8508L600.047 37.2ZM569.297 37.2L570.056 37.8508L570.064 37.8419L569.297 37.2ZM569.297 71.7L568.53 72.342L568.538 72.3508L569.297 71.7ZM584.747 108.05C574.911 108.05 565.88 105.741 557.635 101.127L556.659 102.873C565.214 107.659 574.583 110.05 584.747 110.05V108.05ZM557.64 101.13C549.494 96.517 543.02 90.1425 538.208 81.9916L536.486 83.0084C541.474 91.4575 548.2 98.083 556.654 102.87L557.64 101.13ZM538.208 81.9916C533.406 73.8577 530.997 64.6858 530.997 54.45H528.997C528.997 65.0142 531.488 74.5423 536.486 83.0084L538.208 81.9916ZM530.997 54.45C530.997 44.2142 533.406 35.0423 538.208 26.9084L536.486 25.8916C531.488 34.3577 528.997 43.8858 528.997 54.45H530.997ZM538.208 26.9084C543.019 18.7593 549.49 12.4369 557.632 7.92465L556.662 6.17534C548.204 10.8631 541.475 17.4407 536.486 25.8916L538.208 26.9084ZM557.635 7.92268C565.88 3.30948 574.911 0.999996 584.747 0.999996V-1C574.583 -1 565.214 1.39051 556.659 6.17731L557.635 7.92268ZM584.747 0.999996C594.583 0.999996 603.562 3.30945 611.704 7.92017L612.69 6.17982C604.232 1.39054 594.911 -1 584.747 -1V0.999996ZM611.712 7.92465C619.852 12.4358 626.271 18.7558 630.981 26.9006L632.713 25.8994C627.823 17.4442 621.142 10.8642 612.682 6.17534L611.712 7.92465ZM630.986 26.9084C635.788 35.0423 638.197 44.2142 638.197 54.45H640.197C640.197 43.8858 637.706 34.3577 632.708 25.8916L630.986 26.9084ZM638.197 54.45C638.197 64.6858 635.788 73.8577 630.986 81.9916L632.708 83.0084C637.706 74.5423 640.197 65.0142 640.197 54.45H638.197ZM630.981 81.9994C626.272 90.143 619.802 96.5148 611.559 101.127L612.535 102.873C621.092 98.0852 627.822 91.457 632.713 83.0006L630.981 81.9994ZM611.554 101.13C603.41 105.741 594.481 108.05 584.747 108.05V110.05C594.813 110.05 604.084 107.659 612.54 102.87L611.554 101.13ZM584.747 79C591.577 79 596.979 76.8155 600.806 72.3508L599.288 71.0492C595.915 74.9845 591.117 77 584.747 77V79ZM600.814 72.3419C604.603 67.8159 606.447 61.8167 606.447 54.45H604.447C604.447 61.4833 602.691 66.9841 599.28 71.0581L600.814 72.3419ZM606.447 54.45C606.447 46.9886 604.606 40.9816 600.806 36.5492L599.288 37.8508C602.689 41.8184 604.447 47.3113 604.447 54.45H606.447ZM600.814 36.5581C596.989 31.9901 591.585 29.75 584.747 29.75V31.75C591.109 31.75 595.905 33.8099 599.28 37.8419L600.814 36.5581ZM584.747 29.75C577.815 29.75 572.358 31.9865 568.53 36.5581L570.064 37.8419C573.436 33.8135 578.279 31.75 584.747 31.75V29.75ZM568.538 36.5492C564.739 40.9816 562.897 46.9886 562.897 54.45H564.897C564.897 47.3113 566.656 41.8184 570.056 37.8508L568.538 36.5492ZM562.897 54.45C562.897 61.8167 564.741 67.8159 568.53 72.3419L570.064 71.0581C566.653 66.9841 564.897 61.4833 564.897 54.45H562.897ZM568.538 72.3508C572.368 76.819 577.823 79 584.747 79V77C578.272 77 573.426 74.981 570.056 71.0492L568.538 72.3508ZM753.06 108V109H754.06V108H753.06ZM719.76 108L718.925 108.551L719.222 109H719.76V108ZM684.51 54.6L685.345 54.0491L683.51 51.2699V54.6H684.51ZM684.51 108V109H685.51V108H684.51ZM651.21 108H650.21V109H651.21V108ZM651.21 1.8V0.799999H650.21V1.8H651.21ZM684.51 1.8L685.349 1.2555L685.053 0.799999H684.51V1.8ZM719.76 56.1L718.921 56.6445L720.76 59.477V56.1H719.76ZM719.76 1.8V0.799999H718.76V1.8H719.76ZM753.06 1.8H754.06V0.799999H753.06V1.8ZM753.06 107H719.76V109H753.06V107ZM720.595 107.449L685.345 54.0491L683.675 55.1509L718.925 108.551L720.595 107.449ZM683.51 54.6V108H685.51V54.6H683.51ZM684.51 107H651.21V109H684.51V107ZM652.21 108V1.8H650.21V108H652.21ZM651.21 2.8H684.51V0.799999H651.21V2.8ZM683.671 2.3445L718.921 56.6445L720.599 55.5555L685.349 1.2555L683.671 2.3445ZM720.76 56.1V1.8H718.76V56.1H720.76ZM719.76 2.8H753.06V0.799999H719.76V2.8ZM752.06 1.8V108H754.06V1.8H752.06ZM182.741 263.1L181.89 263.626L182.184 264.1H182.741V263.1ZM177.191 258.3L176.743 259.194L176.759 259.202L176.774 259.209L177.191 258.3ZM153.641 262.8L154.401 263.449L154.409 263.44L153.641 262.8ZM154.241 298.35L153.516 299.039L153.516 299.039L154.241 298.35ZM190.841 295.2L191.638 295.804L192.854 294.2H190.841V295.2ZM164.291 295.2H163.291V296.2H164.291V295.2ZM164.291 271.65V270.65H163.291V271.65H164.291ZM218.441 271.65H219.441V270.65H218.441V271.65ZM218.441 304.95L219.305 305.453L219.441 305.22V304.95H218.441ZM199.391 325.35L199.959 326.173L199.966 326.168L199.391 325.35ZM139.841 327L139.347 327.87L139.353 327.873L139.36 327.877L139.841 327ZM121.091 307.8L120.205 308.264L120.209 308.273L121.091 307.8ZM121.091 251.7L120.209 251.227L120.205 251.236L121.091 251.7ZM139.841 232.65L140.326 233.524L140.334 233.52L139.841 232.65ZM202.241 235.8L201.63 236.592L201.635 236.596L202.241 235.8ZM217.841 263.1V264.1H218.989L218.831 262.962L217.841 263.1ZM183.591 262.574C182.18 260.294 180.173 258.567 177.607 257.391L176.774 259.209C179.008 260.233 180.701 261.706 181.89 263.626L183.591 262.574ZM177.638 257.406C175.067 256.12 172.006 255.5 168.491 255.5V257.5C171.776 257.5 174.514 258.08 176.743 259.194L177.638 257.406ZM168.491 255.5C161.85 255.5 156.596 257.692 152.872 262.16L154.409 263.44C157.686 259.508 162.331 257.5 168.491 257.5V255.5ZM152.88 262.151C149.18 266.485 147.391 272.393 147.391 279.75H149.391C149.391 272.707 151.101 267.315 154.401 263.449L152.88 262.151ZM147.391 279.75C147.391 288.188 149.372 294.682 153.516 299.039L154.965 297.661C151.31 293.818 149.391 287.912 149.391 279.75H147.391ZM153.516 299.039C157.674 303.41 163.987 305.5 172.241 305.5V303.5C164.295 303.5 158.607 301.49 154.965 297.661L153.516 299.039ZM172.241 305.5C180.257 305.5 186.751 302.25 191.638 295.804L190.044 294.596C185.53 300.55 179.624 303.5 172.241 303.5V305.5ZM190.841 294.2H164.291V296.2H190.841V294.2ZM165.291 295.2V271.65H163.291V295.2H165.291ZM164.291 272.65H218.441V270.65H164.291V272.65ZM217.441 271.65V304.95H219.441V271.65H217.441ZM217.576 304.447C213.055 312.212 206.807 318.908 198.815 324.532L199.966 326.168C208.174 320.392 214.626 313.488 219.305 305.453L217.576 304.447ZM198.822 324.527C190.928 329.985 180.89 332.75 168.641 332.75V334.75C181.191 334.75 191.653 331.915 199.959 326.173L198.822 324.527ZM168.641 332.75C157.779 332.75 148.35 330.529 140.322 326.123L139.36 327.877C147.731 332.471 157.502 334.75 168.641 334.75V332.75ZM140.334 326.13C132.398 321.623 126.283 315.361 121.972 307.327L120.209 308.273C124.699 316.639 131.083 323.177 139.347 327.87L140.334 326.13ZM121.976 307.336C117.761 299.297 115.641 290.11 115.641 279.75H113.641C113.641 290.39 115.82 299.903 120.205 308.264L121.976 307.336ZM115.641 279.75C115.641 269.39 117.761 260.203 121.976 252.164L120.205 251.236C115.82 259.597 113.641 269.11 113.641 279.75H115.641ZM121.972 252.173C126.282 244.141 132.395 237.931 140.326 233.524L139.355 231.776C131.087 236.369 124.7 242.859 120.209 251.227L121.972 252.173ZM140.334 233.52C148.26 229.019 157.584 226.75 168.341 226.75V224.75C157.297 224.75 147.621 227.081 139.347 231.78L140.334 233.52ZM168.341 226.75C182.079 226.75 193.147 230.059 201.63 236.592L202.851 235.008C193.934 228.141 182.402 224.75 168.341 224.75V226.75ZM201.635 236.596C210.213 243.127 215.285 251.985 216.85 263.238L218.831 262.962C217.197 251.215 211.868 241.873 202.846 235.004L201.635 236.596ZM217.841 262.1H182.741V264.1H217.841V262.1ZM283.834 333L282.948 333.464L283.228 334H283.834V333ZM263.884 294.9L264.769 294.436L264.489 293.9H263.884V294.9ZM263.734 294.9V293.9H262.734V294.9H263.734ZM263.734 333V334H264.734V333H263.734ZM230.434 333H229.434V334H230.434V333ZM230.434 226.8V225.8H229.434V226.8H230.434ZM301.984 231.45L301.531 232.342L301.542 232.347L301.984 231.45ZM315.634 243.9L314.763 244.393L314.769 244.402L314.775 244.412L315.634 243.9ZM314.284 280.5L313.475 279.912L313.468 279.922L314.284 280.5ZM297.334 292.35L297.025 291.399L295.858 291.777L296.464 292.844L297.334 292.35ZM320.434 333V334H322.152L321.303 332.506L320.434 333ZM263.734 272.7H262.734V273.7H263.734V272.7ZM284.134 270.6L284.792 271.353L284.805 271.341L284.818 271.33L284.134 270.6ZM283.984 257.1L283.276 257.807L283.287 257.818L283.298 257.828L283.984 257.1ZM263.734 254.7V253.7H262.734V254.7H263.734ZM284.719 332.536L264.769 294.436L262.998 295.364L282.948 333.464L284.719 332.536ZM263.884 293.9H263.734V295.9H263.884V293.9ZM262.734 294.9V333H264.734V294.9H262.734ZM263.734 332H230.434V334H263.734V332ZM231.434 333V226.8H229.434V333H231.434ZM230.434 227.8H279.934V225.8H230.434V227.8ZM279.934 227.8C288.416 227.8 295.602 229.329 301.531 232.341L302.437 230.559C296.165 227.371 288.652 225.8 279.934 225.8V227.8ZM301.542 232.347C307.484 235.269 311.874 239.288 314.763 244.393L316.504 243.407C313.393 237.912 308.684 233.631 302.425 230.553L301.542 232.347ZM314.775 244.412C317.774 249.443 319.284 255.163 319.284 261.6H321.284C321.284 254.837 319.693 248.757 316.493 243.388L314.775 244.412ZM319.284 261.6C319.284 268.499 317.345 274.591 313.475 279.912L315.092 281.088C319.222 275.409 321.284 268.901 321.284 261.6H319.284ZM313.468 279.922C309.711 285.22 304.253 289.055 297.025 291.399L297.642 293.301C305.214 290.845 311.056 286.78 315.099 281.078L313.468 279.922ZM296.464 292.844L319.564 333.494L321.303 332.506L298.203 291.856L296.464 292.844ZM320.434 332H283.834V334H320.434V332ZM263.734 273.7H276.934V271.7H263.734V273.7ZM276.934 273.7C280.257 273.7 282.937 272.976 284.792 271.353L283.475 269.847C282.13 271.024 280.01 271.7 276.934 271.7V273.7ZM284.818 271.33C286.691 269.573 287.534 266.96 287.534 263.7H285.534C285.534 266.64 284.776 268.627 283.45 269.87L284.818 271.33ZM287.534 263.7C287.534 260.684 286.609 258.198 284.669 256.372L283.298 257.828C284.758 259.202 285.534 261.116 285.534 263.7H287.534ZM284.691 256.393C282.842 254.545 280.198 253.7 276.934 253.7V255.7C279.869 255.7 281.925 256.455 283.276 257.807L284.691 256.393ZM276.934 253.7H263.734V255.7H276.934V253.7ZM262.734 254.7V272.7H264.734V254.7H262.734ZM355.072 327L354.579 327.87L354.584 327.873L355.072 327ZM335.272 307.5L334.411 308.008L334.411 308.008L335.272 307.5ZM355.072 232.05L355.557 232.925L355.56 232.923L355.072 232.05ZM410.122 232.05L409.629 232.92L409.637 232.925L410.122 232.05ZM429.772 251.4L428.906 251.901L428.911 251.908L429.772 251.4ZM429.772 307.5L428.911 306.992L428.906 306.999L429.772 307.5ZM409.972 327L409.484 326.127L409.479 326.13L409.972 327ZM397.972 296.7L398.731 297.351L398.739 297.342L397.972 296.7ZM397.972 262.2L397.205 262.842L397.213 262.851L397.972 262.2ZM367.222 262.2L367.981 262.851L367.989 262.842L367.222 262.2ZM367.222 296.7L366.455 297.342L366.463 297.351L367.222 296.7ZM382.672 333.05C372.836 333.05 363.805 330.741 355.56 326.127L354.584 327.873C363.139 332.659 372.508 335.05 382.672 335.05V333.05ZM355.565 326.13C347.419 321.517 340.945 315.143 336.133 306.992L334.411 308.008C339.399 316.457 346.125 323.083 354.579 327.87L355.565 326.13ZM336.133 306.992C331.331 298.858 328.922 289.686 328.922 279.45H326.922C326.922 290.014 329.413 299.542 334.411 308.008L336.133 306.992ZM328.922 279.45C328.922 269.214 331.331 260.042 336.133 251.908L334.411 250.892C329.413 259.358 326.922 268.886 326.922 279.45H328.922ZM336.133 251.908C340.944 243.759 347.415 237.437 355.557 232.925L354.587 231.175C346.129 235.863 339.4 242.441 334.411 250.892L336.133 251.908ZM355.56 232.923C363.805 228.309 372.836 226 382.672 226V224C372.508 224 363.139 226.391 354.584 231.177L355.56 232.923ZM382.672 226C392.508 226 401.487 228.309 409.629 232.92L410.615 231.18C402.157 226.391 392.836 224 382.672 224V226ZM409.637 232.925C417.777 237.436 424.196 243.756 428.906 251.901L430.638 250.899C425.748 242.444 419.067 235.864 410.607 231.175L409.637 232.925ZM428.911 251.908C433.713 260.042 436.122 269.214 436.122 279.45H438.122C438.122 268.886 435.631 259.358 430.633 250.892L428.911 251.908ZM436.122 279.45C436.122 289.686 433.713 298.858 428.911 306.992L430.633 308.008C435.631 299.542 438.122 290.014 438.122 279.45H436.122ZM428.906 306.999C424.197 315.143 417.727 321.515 409.484 326.127L410.46 327.873C419.016 323.085 425.747 316.457 430.638 308.001L428.906 306.999ZM409.479 326.13C401.335 330.741 392.406 333.05 382.672 333.05V335.05C392.738 335.05 402.009 332.659 410.465 327.87L409.479 326.13ZM382.672 304C389.502 304 394.904 301.816 398.731 297.351L397.213 296.049C393.84 299.984 389.042 302 382.672 302V304ZM398.739 297.342C402.528 292.816 404.372 286.817 404.372 279.45H402.372C402.372 286.483 400.616 291.984 397.205 296.058L398.739 297.342ZM404.372 279.45C404.372 271.989 402.53 265.982 398.731 261.549L397.213 262.851C400.613 266.818 402.372 272.311 402.372 279.45H404.372ZM398.739 261.558C394.914 256.99 389.51 254.75 382.672 254.75V256.75C389.034 256.75 393.829 258.81 397.205 262.842L398.739 261.558ZM382.672 254.75C375.74 254.75 370.282 256.986 366.455 261.558L367.989 262.842C371.361 258.814 376.204 256.75 382.672 256.75V254.75ZM366.463 261.549C362.663 265.982 360.822 271.989 360.822 279.45H362.822C362.822 272.311 364.58 266.818 367.981 262.851L366.463 261.549ZM360.822 279.45C360.822 286.817 362.666 292.816 366.455 297.342L367.989 296.058C364.578 291.984 362.822 286.483 362.822 279.45H360.822ZM366.463 297.351C370.293 301.819 375.747 304 382.672 304V302C376.196 302 371.351 299.981 367.981 296.049L366.463 297.351ZM481.685 226.8H482.685V225.8H481.685V226.8ZM484.835 298.35L484.025 298.937L484.036 298.952L484.048 298.968L484.835 298.35ZM505.985 298.35L506.757 298.985L506.763 298.978L506.768 298.971L505.985 298.35ZM509.435 226.8V225.8H508.435V226.8H509.435ZM542.585 226.8H543.585V225.8H542.585V226.8ZM536.285 312.6L537.145 313.109L537.149 313.104L536.285 312.6ZM519.035 328.65L519.477 329.547L519.477 329.547L519.035 328.65ZM470.585 328.65L470.122 329.537L470.127 329.539L470.585 328.65ZM454.385 312.6L453.508 313.081L453.508 313.081L454.385 312.6ZM448.535 226.8V225.8H447.535V226.8H448.535ZM480.685 226.8V286.65H482.685V226.8H480.685ZM480.685 286.65C480.685 291.685 481.763 295.813 484.025 298.937L485.645 297.763C483.706 295.087 482.685 291.415 482.685 286.65H480.685ZM484.048 298.968C486.499 302.087 490.342 303.55 495.335 303.55V301.55C490.727 301.55 487.571 300.213 485.621 297.732L484.048 298.968ZM495.335 303.55C500.33 303.55 504.21 302.086 506.757 298.985L505.212 297.715C503.159 300.214 499.939 301.55 495.335 301.55V303.55ZM506.768 298.971C509.248 295.845 510.435 291.702 510.435 286.65H508.435C508.435 291.398 507.321 295.055 505.201 297.729L506.768 298.971ZM510.435 286.65V226.8H508.435V286.65H510.435ZM509.435 227.8H542.585V225.8H509.435V227.8ZM541.585 226.8V286.65H543.585V226.8H541.585ZM541.585 286.65C541.585 296.61 539.515 305.078 535.421 312.096L537.149 313.104C541.455 305.722 543.585 296.89 543.585 286.65H541.585ZM535.424 312.091C531.322 319.026 525.716 324.24 518.592 327.753L519.477 329.547C526.954 325.86 532.848 320.374 537.145 313.109L535.424 312.091ZM518.592 327.753C511.444 331.278 503.448 333.05 494.585 333.05V335.05C503.722 335.05 512.025 333.222 519.477 329.547L518.592 327.753ZM494.585 333.05C485.721 333.05 477.882 331.278 471.042 327.761L470.127 329.539C477.288 333.222 485.449 335.05 494.585 335.05V333.05ZM471.047 327.763C464.33 324.259 459.07 319.053 455.261 312.119L453.508 313.081C457.499 320.347 463.04 325.841 470.122 329.537L471.047 327.763ZM455.261 312.119C451.461 305.2 449.535 296.724 449.535 286.65H447.535C447.535 296.975 449.509 305.8 453.508 313.081L455.261 312.119ZM449.535 286.65V226.8H447.535V286.65H449.535ZM448.535 227.8H481.685V225.8H448.535V227.8ZM639.147 281.55L640.015 282.048L640.018 282.041L639.147 281.55ZM625.347 294.45L624.883 293.564L624.877 293.568L625.347 294.45ZM590.247 299.25V298.25H589.247V299.25H590.247ZM590.247 333V334H591.247V333H590.247ZM556.947 333H555.947V334H556.947V333ZM556.947 226.8V225.8H555.947V226.8H556.947ZM633.297 236.7L632.606 237.423L632.611 237.428L633.297 236.7ZM590.247 253.5V252.5H589.247V253.5H590.247ZM590.247 273H589.247V274H590.247V273ZM642.797 263.25C642.797 269.789 641.286 275.718 638.276 281.059L640.018 282.041C643.208 276.382 644.797 270.111 644.797 263.25H642.797ZM638.28 281.052C635.285 286.27 630.833 290.443 624.883 293.564L625.812 295.336C632.062 292.057 636.81 287.63 640.015 282.048L638.28 281.052ZM624.877 293.568C619.055 296.673 611.926 298.25 603.447 298.25V300.25C612.169 300.25 619.64 298.627 625.818 295.332L624.877 293.568ZM603.447 298.25H590.247V300.25H603.447V298.25ZM589.247 299.25V333H591.247V299.25H589.247ZM590.247 332H556.947V334H590.247V332ZM557.947 333V226.8H555.947V333H557.947ZM556.947 227.8H603.447V225.8H556.947V227.8ZM603.447 227.8C616.285 227.8 625.951 231.057 632.606 237.423L633.988 235.977C626.844 229.143 616.61 225.8 603.447 225.8V227.8ZM632.611 237.428C639.379 243.809 642.797 252.379 642.797 263.25H644.797C644.797 251.921 641.215 242.791 633.983 235.972L632.611 237.428ZM599.697 274C603.287 274 606.165 273.156 608.145 271.29C610.137 269.414 611.047 266.67 611.047 263.25H609.047C609.047 266.33 608.233 268.461 606.774 269.835C605.304 271.219 603.008 272 599.697 272V274ZM611.047 263.25C611.047 259.83 610.137 257.085 608.145 255.21C606.165 253.344 603.287 252.5 599.697 252.5V254.5C603.008 254.5 605.304 255.281 606.774 256.665C608.233 258.039 609.047 260.17 609.047 263.25H611.047ZM599.697 252.5H590.247V254.5H599.697V252.5ZM589.247 253.5V273H591.247V253.5H589.247ZM590.247 274H599.697V272H590.247V274Z" fill="white"/>
</svg>
