<svg width="45" height="45" viewBox="0 0 45 45" fill="none" xmlns="http://www.w3.org/2000/svg">
<path d="M19.3498 1.80005C15.3525 1.80005 11.64 2.78091 9.08418 4.50005H4.4998C3.0127 4.50005 1.7998 5.71294 1.7998 7.20005V40.5001C1.7998 41.9872 3.0127 43.2001 4.4998 43.2001H34.1998C35.6869 43.2001 36.8998 41.9872 36.8998 40.5001V7.20005C36.8998 5.71294 35.6869 4.50005 34.1998 4.50005H29.6154C27.0596 2.78091 23.3436 1.80005 19.3498 1.80005ZM41.3998 7.20005C39.9127 7.20005 38.6998 8.41294 38.6998 9.90005C38.6998 11.3872 39.9127 12.6 41.3998 12.6C42.8869 12.6 44.0998 11.3872 44.0998 9.90005C44.0998 8.41294 42.8869 7.20005 41.3998 7.20005ZM40.4998 13.3594V22.5C40.4998 22.9958 40.0955 23.4 39.5998 23.4V22.5C39.5998 21.5086 38.7912 20.7 37.7998 20.7V27.9C38.7912 27.9 39.5998 27.0915 39.5998 26.1V25.2C41.0869 25.2 42.2998 23.9872 42.2998 22.5V13.3594C42.0115 13.4368 41.7127 13.5 41.3998 13.5C41.0869 13.5 40.7881 13.4368 40.4998 13.3594ZM8.0998 14.4H14.3998V32.4001H8.0998C7.6041 32.4001 7.1998 31.9958 7.1998 31.5001V15.3C7.1998 14.8043 7.6041 14.4 8.0998 14.4ZM16.1998 14.4H22.4998V32.4001H16.1998V14.4ZM24.2998 14.4H30.5998C31.0955 14.4 31.4998 14.8043 31.4998 15.3V31.5001C31.4998 31.9958 31.0955 32.4001 30.5998 32.4001H24.2998V14.4ZM9.73105 19.8C9.23535 19.8458 8.86973 20.2887 8.91543 20.7844C8.96113 21.2801 9.4041 21.6458 9.8998 21.6H11.5311C11.3201 21.8637 11.1865 21.9516 10.8842 22.5563C10.3814 23.5653 9.8998 25.0594 9.8998 27C9.89629 27.3235 10.065 27.6258 10.3463 27.7911C10.6275 27.9528 10.9721 27.9528 11.2533 27.7911C11.5346 27.6258 11.7033 27.3235 11.6998 27C11.6998 25.3583 12.1182 24.1665 12.5154 23.3719C12.9127 22.5774 13.2467 22.2469 13.2467 22.2469C13.4154 22.0747 13.5068 21.8391 13.4998 21.6V20.7C13.4998 20.2043 13.0955 19.8 12.5998 19.8H9.8998C9.87168 19.8 9.84355 19.8 9.81543 19.8C9.7873 19.8 9.75918 19.8 9.73105 19.8ZM17.8311 19.8C17.3354 19.8458 16.9697 20.2887 17.0154 20.7844C17.0611 21.2801 17.5041 21.6458 17.9998 21.6H19.6311C19.4201 21.8637 19.2865 21.9516 18.9842 22.5563C18.4814 23.5653 17.9998 25.0594 17.9998 27C17.9963 27.3235 18.165 27.6258 18.4463 27.7911C18.7275 27.9528 19.0721 27.9528 19.3533 27.7911C19.6346 27.6258 19.8033 27.3235 19.7998 27C19.7998 25.3583 20.2182 24.1665 20.6154 23.3719C21.0127 22.5774 21.3467 22.2469 21.3467 22.2469C21.5154 22.0747 21.6068 21.8391 21.5998 21.6V20.7C21.5998 20.2043 21.1955 19.8 20.6998 19.8H17.9998C17.9717 19.8 17.9436 19.8 17.9154 19.8C17.8873 19.8 17.8592 19.8 17.8311 19.8ZM25.9311 19.8C25.4354 19.8458 25.0697 20.2887 25.1154 20.7844C25.1611 21.2801 25.6041 21.6458 26.0998 21.6H27.7311C27.5201 21.8637 27.3865 21.9516 27.0842 22.5563C26.5814 23.5653 26.0998 25.0594 26.0998 27C26.0963 27.3235 26.265 27.6258 26.5463 27.7911C26.8275 27.9528 27.1721 27.9528 27.4533 27.7911C27.7346 27.6258 27.9033 27.3235 27.8998 27C27.8998 25.3583 28.3182 24.1665 28.7154 23.3719C29.1127 22.5774 29.4467 22.2469 29.4467 22.2469C29.6154 22.0747 29.7068 21.8391 29.6998 21.6V20.7C29.6998 20.2043 29.2955 19.8 28.7998 19.8H26.0998C26.0717 19.8 26.0436 19.8 26.0154 19.8C25.9873 19.8 25.9592 19.8 25.9311 19.8Z" fill="#FF0C0C"/>
</svg>
