<svg width="45" height="46" viewBox="0 0 45 46" fill="none" xmlns="http://www.w3.org/2000/svg">
<g clip-path="url(#clip0_105_16578)">
<path d="M32.3438 23.7188H33.0469C33.4198 23.7188 33.7775 23.5673 34.0412 23.2977C34.305 23.0281 34.4531 22.6625 34.4531 22.2812V2.15625C34.4531 1.775 34.305 1.40937 34.0412 1.13978C33.7775 0.8702 33.4198 0.71875 33.0469 0.71875H18.9844C18.6114 0.71875 18.2537 0.8702 17.99 1.13978C17.7263 1.40937 17.5781 1.775 17.5781 2.15625V22.2812C17.5781 22.6625 17.7263 23.0281 17.99 23.2977C18.2537 23.5673 18.6114 23.7188 18.9844 23.7188H28.125" stroke="#094998" stroke-width="2" stroke-linejoin="round"/>
<path d="M32.3438 29.4688V21.5625C32.3438 20.9906 32.1215 20.4422 31.7259 20.0378C31.3303 19.6334 30.7938 19.4063 30.2344 19.4062C29.6749 19.4063 29.1384 19.6334 28.7428 20.0378C28.3472 20.4422 28.125 20.9906 28.125 21.5625V25.875C28.125 25.875 26.0156 28.75 26.0156 31.625C26.0156 34.5 28.8281 36.6562 28.8281 36.6562V39.5312" stroke="#094998" stroke-width="2" stroke-linejoin="round"/>
<path d="M32.3438 28.0312L37.2656 21.5625V18.6875L34.4531 16.5312" stroke="#094998" stroke-width="2" stroke-linejoin="round"/>
<path d="M34.4531 12.2188L40.0781 15.8125L42.8906 24.4375L37.9688 36.6562V39.5312" stroke="#094998" stroke-width="2" stroke-linejoin="round"/>
<path d="M40.0781 39.5312H27.4219V45.2812H40.0781V39.5312Z" stroke="#094998" stroke-width="2" stroke-linejoin="round"/>
<path d="M17.578 6.20282L11.7702 7.01501C11.5872 7.03757 11.4104 7.09715 11.2502 7.19027C11.09 7.28338 10.9495 7.40817 10.8369 7.55735C10.7244 7.70654 10.642 7.87714 10.5946 8.05921C10.5472 8.24128 10.5357 8.43117 10.5608 8.61782L13.3311 28.2469C13.3887 28.6235 13.5894 28.9617 13.8897 29.1878C14.1899 29.4139 14.5653 29.5097 14.9343 29.4544L27.028 27.7653" stroke="#094998" stroke-width="2" stroke-linejoin="round"/>
<path d="M27.0492 23.7187L27.2109 24.8759L15.9469 26.45L13.5703 9.62404L17.5781 9.06342" stroke="#094998" stroke-width="2" stroke-linejoin="round"/>
<path d="M21.3562 14.8681C21.7644 15.2604 22.2616 15.5429 22.8031 15.6902C23.3446 15.8375 23.9133 15.8449 24.4583 15.7119L23.9064 17.25H28.1251L27.5732 15.7119C28.1182 15.8449 28.687 15.8375 29.2285 15.6902C29.7699 15.5429 30.2671 15.2604 30.6754 14.8681C30.9802 14.5757 31.2231 14.2226 31.3892 13.8306C31.5552 13.4385 31.6409 13.0158 31.6409 12.5885C31.6409 12.1613 31.5552 11.7386 31.3892 11.3465C31.2231 10.9545 30.9802 10.6014 30.6754 10.309L26.0158 5.75L21.3562 10.309C21.0514 10.6014 20.8084 10.9545 20.6424 11.3465C20.4763 11.7386 20.3906 12.1613 20.3906 12.5885C20.3906 13.0158 20.4763 13.4385 20.6424 13.8306C20.8084 14.2226 21.0514 14.5757 21.3562 14.8681Z" stroke="#094998" stroke-width="2" stroke-linejoin="round"/>
<path d="M11.3904 14.4756L5.33649 20.6641C5.20456 20.7969 5.09978 20.9552 5.02827 21.1298C4.95675 21.3044 4.91992 21.4918 4.91992 21.6811C4.91992 21.8704 4.95675 22.0578 5.02827 22.2324C5.09978 22.407 5.20456 22.5653 5.33649 22.6981L19.2795 36.951C19.4094 37.0858 19.5643 37.1929 19.7351 37.266C19.9059 37.3391 20.0892 37.3768 20.2744 37.3768C20.4596 37.3768 20.6429 37.3391 20.8137 37.266C20.9845 37.1929 21.1394 37.0858 21.2693 36.951L26.0365 32.0778" stroke="#094998" stroke-width="2" stroke-linejoin="round"/>
<path d="M13.0924 26.5578L8.3252 21.6847L11.89 18.0406" stroke="#094998" stroke-width="2" stroke-linejoin="round"/>
<path d="M15.8062 29.3322L20.271 33.8963L26.1491 27.8875" stroke="#094998" stroke-width="2" stroke-linejoin="round"/>
<path d="M7.03125 15.0938L4.21875 12.2188" stroke="#094998" stroke-width="2" stroke-linejoin="round"/>
<path d="M8.4375 13.6562V10.0625" stroke="#094998" stroke-width="2" stroke-linejoin="round"/>
<path d="M5.625 16.5312H2.10938" stroke="#094998" stroke-width="2" stroke-linejoin="round"/>
</g>
<defs>
<clipPath id="clip0_105_16578">
<rect width="45" height="46" fill="white"/>
</clipPath>
</defs>
</svg>
